<svg data-name="Layer 1" viewBox="0 0 512 512" xmlns="http://www.w3.org/2000/svg"><path d="M466.92 168.65a4.35 4.35 0 0 0-4.35-4.35H322.71c-1.35-15.88-5.83-32.6-17.18-43.81a45.43 45.43 0 0 0-13.21-9 46.52 46.52 0 1 0-72.66 0 45.14 45.14 0 0 0-13.19 9c-11.35 11.21-15.84 27.93-17.18 43.8H49.43a4.35 4.35 0 0 0-4.35 4.35V343.1a4.29 4.29 0 0 0 .3 1.48c1 16.77 5.3 35 17.4 46.92a45.28 45.28 0 0 0 13.19 9 46.51 46.51 0 1 0 72.66 0 45.14 45.14 0 0 0 13.21-9c11.41-11.27 15.89-28.1 17.21-44.05h10.21c1.32 15.95 5.8 32.78 17.21 44.05a45.14 45.14 0 0 0 13.19 9 46.51 46.51 0 1 0 72.66 0 45.27 45.27 0 0 0 13.21-9c11.4-11.26 15.88-28.09 17.2-44.05H333c1.32 15.95 5.8 32.78 17.21 44.05a45 45 0 0 0 13.19 9 46.51 46.51 0 1 0 72.66 0 45.27 45.27 0 0 0 13.21-9c12.07-11.93 16.38-30.1 17.39-46.86a4.36 4.36 0 0 0 .31-1.54ZM256 44.69a37.82 37.82 0 1 1-37.82 37.82A37.86 37.86 0 0 1 256 44.69Zm-43.41 82a37 37 0 0 1 13.65-8.47 46.39 46.39 0 0 0 59.52 0 37.14 37.14 0 0 1 13.67 8.48c10.5 10.37 14.15 26.67 14.94 41.89v.19a163.56 163.56 0 0 1-2.83 37.65c-.81 3.94-5.79 6.8-11.17 6a9.84 9.84 0 0 1-6.72-3.76 5.7 5.7 0 0 1-1-4.44 151.87 151.87 0 0 0 2.55-35.6c-.48-9-2-17.81-5.24-24.84a4.35 4.35 0 0 0-7.9 3.66c2.17 4.67 3.44 10.55 4.1 16.83h-60.3c.66-6.28 1.93-12.16 4.1-16.83a4.35 4.35 0 0 0-7.9-3.66c-3.24 7-4.74 15.81-5.24 24.72v.2a152.24 152.24 0 0 0 2.56 35.53 5.66 5.66 0 0 1-1 4.44 9.79 9.79 0 0 1-6.71 3.76c-5.34.77-10.36-2.1-11.17-6a163.51 163.51 0 0 1-2.84-37.6v-.28c.77-15.22 4.42-31.5 14.92-41.87ZM112.3 467.31a37.82 37.82 0 1 1 37.81-37.82 37.86 37.86 0 0 1-37.81 37.82Zm43.43-82a37.14 37.14 0 0 1-13.67 8.48 46.39 46.39 0 0 0-59.52 0 37.08 37.08 0 0 1-13.64-8.47c-11.4-11.25-14.76-29.49-15.12-45.74V333a164.45 164.45 0 0 1 3-27.43c.81-3.94 5.92-6.77 11.16-6a9.84 9.84 0 0 1 6.72 3.76 5.66 5.66 0 0 1 1 4.44 152.65 152.65 0 0 0-2.56 35.32s0 0 0 .07c.48 9 2 17.94 5.25 25a4.35 4.35 0 0 0 7.9-3.65c-2.19-4.74-3.47-10.71-4.11-17.09h60.33c-.64 6.38-1.92 12.35-4.11 17.09a4.35 4.35 0 0 0 7.89 3.65c3.28-7.08 4.78-16 5.25-25a152.15 152.15 0 0 0-2.5-35.42 5.66 5.66 0 0 1 1-4.44 9.79 9.79 0 0 1 6.7-3.76c5.34-.73 10.37 2.1 11.18 6A163.33 163.33 0 0 1 170.7 343s0 .08 0 .12v.08c-.77 15.27-4.41 31.68-14.97 42.11Zm100.26 82a37.82 37.82 0 1 1 37.81-37.82 37.87 37.87 0 0 1-37.8 37.82Zm43.43-82a37.22 37.22 0 0 1-13.67 8.48 46.39 46.39 0 0 0-59.52 0 37 37 0 0 1-13.65-8.47c-10.56-10.43-14.19-26.85-15-42.14V343a163.44 163.44 0 0 1 2.85-37.41c.81-3.94 5.93-6.77 11.17-6a9.84 9.84 0 0 1 6.72 3.76 5.7 5.7 0 0 1 1 4.44 151.68 151.68 0 0 0-2.56 35.33c.47 9 2 18 5.25 25a4.35 4.35 0 0 0 7.9-3.65c-2.19-4.74-3.47-10.71-4.12-17.09h60.34c-.65 6.38-1.93 12.35-4.12 17.09a4.35 4.35 0 0 0 7.9 3.65c3.27-7.07 4.78-16 5.25-25v-.08a.43.43 0 0 1 0-.05 152 152 0 0 0-2.57-35.31 5.71 5.71 0 0 1 1-4.44 9.84 9.84 0 0 1 6.71-3.76c5.34-.73 10.37 2.1 11.18 6a163.33 163.33 0 0 1 2.9 37.52s0 .06 0 .08c-.77 15.37-4.38 31.8-14.96 42.23Zm23.73-46.56a171.55 171.55 0 0 0-3.09-34.92c-1.73-8.43-10.79-14.29-20.92-12.9a18.5 18.5 0 0 0-12.6 7.36 14.31 14.31 0 0 0-2.43 11.18 142.73 142.73 0 0 1 2.55 29.28h-61.32a142.73 142.73 0 0 1 2.55-29.28 14.29 14.29 0 0 0-2.43-11.18 18.49 18.49 0 0 0-12.61-7.36c-10-1.39-19.18 4.47-20.91 12.9a170.38 170.38 0 0 0-3.1 34.92h-9.37a171.46 171.46 0 0 0-3.09-34.92c-1.74-8.44-10.85-14.32-20.93-12.9a18.44 18.44 0 0 0-12.59 7.36 14.25 14.25 0 0 0-2.43 11.18 143.44 143.44 0 0 1 2.57 29.28H81.65a142.73 142.73 0 0 1 2.55-29.28 14.29 14.29 0 0 0-2.43-11.18 18.49 18.49 0 0 0-12.61-7.36 19.93 19.93 0 0 0-15.38 4.14V173h135.06a171.26 171.26 0 0 0 3.1 35.17c1.56 7.6 9.11 13.11 17.95 13.11a21.4 21.4 0 0 0 3-.21 18.51 18.51 0 0 0 12.6-7.35 14.33 14.33 0 0 0 2.43-11.19 143 143 0 0 1-2.58-29.53h61.32a143 143 0 0 1-2.55 29.53 14.33 14.33 0 0 0 2.43 11.19 18.51 18.51 0 0 0 12.6 7.35 21.4 21.4 0 0 0 3 .21c8.84 0 16.39-5.51 17.95-13.11a170.8 170.8 0 0 0 3.06-35.17h135.07v122.06a19.86 19.86 0 0 0-15.39-4.13 18.48 18.48 0 0 0-12.6 7.36 14.26 14.26 0 0 0-2.43 11.18 142.73 142.73 0 0 1 2.55 29.28H369a143.44 143.44 0 0 1 2.55-29.28 14.26 14.26 0 0 0-2.43-11.18 18.48 18.48 0 0 0-12.6-7.36c-10-1.39-19.18 4.47-20.92 12.9a171.46 171.46 0 0 0-3.09 34.92Zm76.52 128.56a37.82 37.82 0 1 1 37.81-37.82 37.86 37.86 0 0 1-37.81 37.82Zm43.43-82a37.06 37.06 0 0 1-13.67 8.48 46.37 46.37 0 0 0-59.51 0 37 37 0 0 1-13.65-8.47c-10.56-10.43-14.2-26.85-15-42.14V343a163.44 163.44 0 0 1 2.85-37.41c.81-3.94 5.93-6.77 11.17-6a9.79 9.79 0 0 1 6.71 3.71 5.62 5.62 0 0 1 1 4.44 152.69 152.69 0 0 0-2.56 35.32s0 0 0 .07c.47 9 2 17.95 5.25 25a4.35 4.35 0 0 0 7.89-3.65c-2.19-4.74-3.46-10.71-4.11-17.09h60.33c-.64 6.38-1.92 12.35-4.11 17.08a4.35 4.35 0 1 0 7.9 3.66c3.28-7.08 4.78-16 5.25-25.05a152.32 152.32 0 0 0-2.56-35.34 5.66 5.66 0 0 1 1-4.44 9.81 9.81 0 0 1 6.71-3.76c5.34-.73 10.37 2.1 11.17 6a166.14 166.14 0 0 1 3 29.06v4.76c-.28 16.33-3.63 34.64-15.06 45.95Z" fill="#918f94" class="fill-231f20"></path></svg>