<?xml version="1.0" encoding="UTF-8"?>
<svg id="Layer_2" data-name="Layer 2" xmlns="http://www.w3.org/2000/svg" viewBox="0 0 412.31 489.18">
  <defs>
    <style>
      .cls-1, .cls-2, .cls-3, .cls-4 {
        fill: #fff;
      }

      .cls-5, .cls-6 {
        fill: #231f20;
      }

      .cls-2 {
        stroke-miterlimit: 10;
        stroke-width: 1px;
      }

      .cls-2, .cls-3, .cls-7, .cls-8, .cls-4, .cls-9, .cls-6, .cls-10 {
        stroke: #231f20;
      }

      .cls-3 {
        stroke-miterlimit: 10;
        stroke-width: 1px;
      }

      .cls-7 {
        fill: #f0d3a0;
      }

      .cls-7, .cls-8, .cls-4, .cls-9, .cls-6, .cls-10 {
        stroke-miterlimit: 10;
      }

      .cls-8 {
        fill: #f6d4a1;
      }

      .cls-9 {
        fill: #f36f21;
      }

      .cls-10 {
        fill: #f4d0a4;
      }
    </style>
  </defs>
  <g id="Layer_1-2" data-name="Layer 1">
    <path class="cls-9" d="M99.45,18.95c37.59-14,112.14-32.43,195.88-1.89,16.31,5.94,30.45,15.65,40.59,28.24,6.4,7.94,13.3,17,18.88,27.89,2.22,4.32,3.32,10.16,4,14.61,1.32,9,1.68,24.46,4.53,57.58,0,0,.44,85.49,4.41,133.42,0,0,9.53,85.27-20.78,124.41-1.69,2.19-3.34,4.39-4.83,6.7-8,12.39-45.58,58-165.12,53.68-138.18-5-143.92-95.85-143.92-95.85,0,0-5-53.67,0-97.38,0,0,10.56-43.7-2.23-116,0,0-6.31-39.36,7.23-72.07,3.72-9.06,8.25-17.76,13.54-26,10.74-16.68,27.59-29.79,47.82-37.34Z"/>
    <path class="cls-9" d="M38.59,79.32s-28.4-14.85-16.21-42.05,43-19.33,43-19.33c0,0,12.33,3.94,16,9.67-.02-.02-21.61,17.94-42.79,51.71Z"/>
    <path class="cls-6" d="M49.68,61.83s-17.21-11.6-6.13-22c8.85-8.31,19.89,4.43,19.89,4.43,0,0-9.83,11.4-13.76,17.57Z"/>
    <path class="cls-9" d="M354.8,73.19s25.26-17,11.12-44.94-42.39-18.05-42.39-18.05c0,0-11.22,4.76-14.08,11,.08-.04,22.08,17.68,45.35,51.99Z"/>
    <path class="cls-6" d="M342.65,55.42s15.05-13,3.6-23.39c-9.14-8.26-18.27,5.66-18.27,5.66,0,0,10.37,11.46,14.67,17.73Z"/>
    <path class="cls-8" d="M34.82,182.17l1,22.84s-3.65-.37-9.71,4.54c-3.14,2.48-6.78,4.24-10.67,5.17-2.29,.61-4.72,.45-6.91-.45-1.85-.73-3.33-2.17-4.11-4-.56-1.43-.12-3.06,1.09-4l5.44-4.31s-8.48,7.88-10.23,1.08,7.68-13.46,7.68-13.46c4.58-2.68,9.47-4.8,14.56-6.31l11.86-1.1Z"/>
    <path class="cls-7" d="M363.78,170.15l.87,30.31s9.11-2.74,17.08,2.82c4.08,2.78,8.73,4.61,13.61,5.37,2.82,.5,5.73,.02,8.25-1.36,2.19-1.16,3.81-3.16,4.52-5.53,.53-1.88-.2-3.89-1.81-5l-7.15-4.87s11.27,9.06,12.57,.18-11-16.28-11-16.28c0,0-8.11-6.16-18.46-6.39l-18.48,.75Z"/>
    <path class="cls-7" d="M84.66,441.8s-31.44,28.25-15.68,40.37c1.22,.95,2.98,.74,3.93-.48,.13-.16,.23-.33,.32-.52l6.8-14.71-6.16,15.35c-.16,.42-.21,.87-.14,1.31,.28,1.59,1.47,5.15,6.49,5.54,2.79,.18,5.56-.65,7.79-2.34,2.69-2,6.78-5.84,11.64-13.19,5.3-7.99,13.3-13.8,22.53-16.36l-37.52-14.97Z"/>
    <path class="cls-7" d="M313.53,437.02s34,26.49,20.94,39.68c-1.55,1.52-4.05,1.5-5.57-.06-.25-.25-.46-.53-.63-.84l-7.5-13.41,6.7,13.62c1.44,2.87,.29,6.36-2.58,7.8-.95,.44-1.96,.71-3,.8-2.92,.29-5.86-.41-8.33-2-3-1.87-7.53-5.57-13.14-12.75-6.23-7.85-14.99-13.32-24.78-15.47l37.89-17.37Z"/>
    <ellipse class="cls-2" cx="267.7" cy="88.41" rx="28.33" ry="47.45" transform="translate(96.72 312.57) rotate(-70.94)"/>
    <circle class="cls-6" cx="267.69" cy="92.21" r="14.4"/>
    <ellipse class="cls-1" cx="271.82" cy="83.72" rx="2.57" ry="5.15" transform="translate(74.68 288.73) rotate(-63.24)"/>
    <ellipse class="cls-3" cx="128.4" cy="89.04" rx="47.39" ry="28.33" transform="translate(-22.07 46.94) rotate(-19.11)"/>
    <ellipse class="cls-6" cx="128.39" cy="92.85" rx="14.38" ry="14.4"/>
    <ellipse class="cls-1" cx="124.27" cy="84.37" rx="5.14" ry="2.57" transform="translate(-24.7 65.14) rotate(-26.82)"/>
    <path class="cls-5" d="M164.75,132.37s-4.58,38.57,31.87,39.86,30.91-39.86,30.91-39.86l-28.47-13.3-34.31,13.3Z"/>
    <path class="cls-4" d="M197.21,136.83l-4.91-.24-3.92,2.33v6.91s1.19,5.08,4.42,5,4.41-3.25,4.41-3.25v-10.75Z"/>
    <path class="cls-4" d="M197.21,136.83l5.06-.24,4,2.33v6.91s-1.22,5.08-4.54,5c-2.02-.11-3.79-1.38-4.54-3.25l.02-10.75Z"/>
    <path class="cls-10" d="M177.92,110.62s-19.5,3.39-15.66,22.91c0,0,2.42,8.19,9.83,9,1.73,.16,3.47-.11,5.07-.79,4.06-1.64,14.94-5.84,20.18-5.95,6.51-.13,12.46,2.74,21.32,6.06,6.46,2.42,10.66-.43,14.05-3.3,3.18-2.62,4.62-6.8,3.74-10.83-.91-3.63-3.01-6.85-5.95-9.16-9.35-7.91-17.77-10.29-17.77-10.29,0,0-30.52,.18-34.81,2.35Z"/>
    <ellipse class="cls-5" cx="197.34" cy="106.09" rx="20.54" ry="13.88"/>
  </g>
</svg>