<?xml version="1.0" ?><!DOCTYPE svg  PUBLIC '-//W3C//DTD SVG 1.1//EN'  'http://www.w3.org/Graphics/SVG/1.1/DTD/svg11.dtd'><svg enable-background="new 0 0 300 300" height="300px" id="Layer_1" version="1.1" viewBox="0 0 300 300" width="300px" xml:space="preserve" xmlns="http://www.w3.org/2000/svg" xmlns:xlink="http://www.w3.org/1999/xlink"><path d="M224.354,68.159c-7.408-19.863-22.036-35.763-41.609-43.99c-19.917-8.371-44.081-6-63.445,2.709  c-24.952,11.223-37.066,36.631-39.446,62.7c-3.334,36.53,12.825,69.078,26.322,101.845c-3.317,3.295-5.003,8.228-5.365,12.965  c-0.297,3.886,1.045,7.163,3.284,9.799c-4.204,8.291-2.826,16.359,3.511,22.02c-1.204,4.043-1.171,8.792-0.536,12.719  c0.856,5.295,4.524,8.675,9.073,10.952c1.598,13.332,15.645,19.928,28.19,20.924c15.381,1.222,32.145-6.433,35.681-22.521  c8.147-5.058,9.751-13.709,6.335-22.042c5.918-4.798,8.752-11.455,4.98-20.378c1.678-1.931,2.937-4.208,3.558-6.753  c1.306-5.351,0.188-12.125-3.145-16.827c8.922-19.479,22.991-36.038,31.511-55.687C232.597,115.045,232.531,90.085,224.354,68.159z   M103.355,51.888c8.989-12.091,23.095-18.817,37.783-21.462c-2.223,0.912-4.384,2.005-6.454,3.359  c-0.671,0.439-0.046,1.522,0.631,1.079c3.932-2.572,8.179-4.216,12.581-5.369c3.065-0.296,6.125-0.424,9.139-0.396  c-6.104,1.174-12.104,2.755-17.951,5.048c-0.742,0.291-0.419,1.5,0.332,1.205c7.517-2.948,15.29-4.719,23.212-5.957  c3.143,0.315,6.22,0.878,9.214,1.676c-10.104,1.076-20.228,1.474-29.812,5.546c-0.74,0.314-0.102,1.391,0.631,1.079  c10.287-4.372,21.317-4.429,32.199-5.735c1.967,0.639,3.896,1.377,5.776,2.213c-3.113,0.026-6.236-0.013-9.34,0.19  c-7.311,0.479-14.231,3.163-21.45,4.189c-0.795,0.113-0.456,1.317,0.332,1.205c7.686-1.092,14.968-3.741,22.765-4.252  c3.373-0.221,6.732-0.146,10.071-0.207c2.293,1.141,4.511,2.426,6.646,3.845c-3.436-0.17-6.887-0.509-10.313-0.281  c-5.737,0.381-11.36,2.024-16.833,3.689c-0.77,0.234-0.441,1.44,0.332,1.205c6.426-1.954,12.924-3.689,19.683-3.767  c3-0.035,5.96,0.266,8.904,0.377c1.464,1.048,2.884,2.16,4.259,3.333c-9.196-0.714-18.572-1.524-26.994,2.581  c-0.725,0.353-0.091,1.431,0.631,1.079c8.624-4.204,18.432-3.05,27.894-2.31c1.238,1.126,2.438,2.299,3.59,3.523  c-9.069-0.497-18.079-0.131-27.132,0.956c-0.79,0.095-0.799,1.346,0,1.25c9.458-1.136,18.87-1.478,28.351-0.877  c1.124,1.261,2.197,2.573,3.228,3.925c-8.751-0.081-17.498-0.341-26.245-0.632c-0.807-0.027-0.804,1.223,0,1.25  c9.059,0.301,18.118,0.57,27.181,0.64c0.68,0.937,1.339,1.891,1.973,2.867c-8.274,0.225-16.537,0.787-24.819,0.578  c-0.807-0.021-0.805,1.229,0,1.25c8.543,0.216,17.066-0.392,25.603-0.601c0.017,0.027,0.034,0.053,0.051,0.08  c0.9,1.458,1.741,2.951,2.535,4.471c-8.242,0.95-16.577,0.593-24.855,1.133c-0.8,0.052-0.806,1.302,0,1.25  c8.483-0.553,17.018-0.198,25.458-1.21c1.106,2.214,2.102,4.486,2.986,6.804c-3.353,0.236-6.754-0.725-10.098-1.114  c-5.164-0.601-10.497-0.104-15.68-0.063c-0.806,0.006-0.807,1.256,0,1.25c5.24-0.041,10.441-0.184,15.68,0.063  c3.638,0.172,7.016,1.335,10.541,1.065c0.483,1.333,0.929,2.68,1.34,4.039c-8.593,0.206-17.149-2.798-25.727-0.729  c-0.783,0.189-0.451,1.394,0.332,1.205c8.563-2.066,17.146,0.944,25.753,0.729c0.293,1.029,0.563,2.065,0.814,3.105  c-3.454,0.09-6.912-0.151-10.376-0.314c-4.711-0.221-9.552,1.201-14.191,0.274c-0.787-0.157-1.122,1.047-0.332,1.205  c4.763,0.952,9.686-0.396,14.523-0.229c3.577,0.124,7.118,0.37,10.665,0.275c0.36,1.593,0.671,3.198,0.937,4.811  c-8.198,0.672-16.386,1.441-24.626,1.25c-0.807-0.019-0.805,1.231,0,1.25c8.306,0.193,16.557-0.59,24.82-1.266  c0.347,2.32,0.598,4.657,0.75,7c-8.302-0.052-16.602-0.297-24.903-0.318c-0.807-0.002-0.806,1.248,0,1.25  c8.324,0.021,16.646,0.269,24.971,0.319c0.096,1.917,0.133,3.838,0.1,5.756c-8.358-0.04-16.712-0.304-25.07-0.326  c-0.807-0.002-0.806,1.248,0,1.25c8.346,0.022,16.687,0.285,25.032,0.325c-0.059,1.812-0.17,3.621-0.345,5.422  c-8.342-0.029-16.68-0.308-25.021-0.33c-0.807-0.002-0.806,1.248,0,1.25c8.297,0.022,16.59,0.297,24.887,0.329  c-0.146,1.296-0.317,2.587-0.522,3.872c-8.509,0.459-17.18,1.958-25.531-0.096c-0.782-0.192-1.114,1.013-0.332,1.205  c8.408,2.067,17.094,0.616,25.651,0.148c-0.255,1.455-0.549,2.899-0.882,4.333c-8.539,0.014-17.062-0.653-25.604-0.709  c-0.807-0.005-0.806,1.245,0,1.25c8.441,0.056,16.865,0.71,25.304,0.711c-0.253,1.02-0.527,2.032-0.82,3.039  c-8.605,0-17.211,0-25.816,0c-0.806,0-0.806,1.25,0,1.25c8.481,0,16.962,0,25.443,0c-0.39,1.261-0.805,2.512-1.257,3.748  c-0.223,0.61-0.456,1.216-0.696,1.819c-7.726,2.508-17.421-0.973-25.157-1.149c-0.807-0.019-0.805,1.231,0,1.25  c7.644,0.174,16.813,3.346,24.55,1.369c-0.388,0.917-0.791,1.828-1.213,2.731c-8.113,0.053-16.225,0.243-24.337-0.017  c-0.807-0.026-0.804,1.224,0,1.25c7.913,0.254,15.826,0.08,23.74,0.021c-0.554,1.141-1.133,2.271-1.73,3.391  c-7.783-0.06-15.559-0.592-23.343-0.329c-0.804,0.027-0.807,1.277,0,1.25c7.561-0.256,15.112,0.236,22.672,0.32  c-0.649,1.184-1.318,2.359-2.004,3.525c-7.765-0.618-15.545-0.448-23.335-0.429c-0.806,0.002-0.807,1.252,0,1.25  c7.556-0.018,15.101-0.184,22.632,0.37c-0.883,1.475-1.788,2.937-2.703,4.391c-7.134,0.149-14.821,1.798-21.763-0.321  c-0.772-0.236-1.101,0.971-0.332,1.205c6.816,2.082,14.262,0.63,21.292,0.387c-1.231,1.938-2.476,3.862-3.708,5.778  c-6.394,0.725-13.258,0.548-19.252-1.036c-0.78-0.206-1.111,0.999-0.332,1.205c5.879,1.554,12.458,1.805,18.714,1.189  c-0.617,0.964-1.233,1.928-1.844,2.894c-6.58-0.045-13.152-0.077-19.704,0.689c-0.791,0.093-0.8,1.344,0,1.25  c6.293-0.736,12.604-0.735,18.923-0.694c-0.649,1.035-1.298,2.071-1.937,3.111c-6.551,0-13.102,0-19.652,0  c-0.806,0-0.806,1.25,0,1.25c6.299,0,12.598,0,18.896,0c-0.699,1.149-1.39,2.302-2.071,3.46c-2.989,0.132-5.98,0.601-8.948,0.934  c-2.113,0.236-8.271,1.757-10.102,0.205c-0.611-0.518-1.5,0.362-0.885,0.885c1.906,1.614,6.06,0.64,8.252,0.442  c3.642-0.328,7.288-0.98,10.944-1.196c-0.776,1.34-1.538,2.688-2.286,4.043c-6.192,0.063-12.368,0.361-18.539,0.902  c-0.69-10.117-1.23-20.243-1.285-30.38c1.644-0.448,3.226-1.07,4.773-2.001c1.38-0.83,0.123-2.992-1.262-2.158  c-1.128,0.678-2.312,1.169-3.529,1.552c0.009-2.531,0.045-5.063,0.125-7.595c0.103-3.226-4.897-3.216-5,0  c-0.092,2.89-0.118,5.779-0.117,8.667c-2.604,0.393-5.248,0.673-7.769,1.397c-0.207,0.06-0.411,0.183-0.573,0.344  c0.249-1.422,0.316-2.823,0.313-3.747c-0.006-1.162-1.8-1.816-2.329-0.631c-0.907,2.031-1.607,4.33-1.43,6.463  c-0.617,0.093-1.043,0.002-1.276-0.274c0.857-2.247,1.249-4.84,1.349-6.479c0.073-1.212-1.797-1.751-2.329-0.631  c-0.68,1.43-1.752,4.261-1.703,6.635c-0.813,1.664-2.17,3.725-2.919,1.553c-0.098-0.283-0.161-0.59-0.202-0.909  c1.419-1.75,2.22-4.338,2.085-8.031c-0.045-1.225-1.683-1.729-2.329-0.631c-0.806,1.368-2.125,4.753-2.351,7.698  c-1.429,1.314-3.441,1.765-5.693,1.693c0.184-4.028,0.308-8.059,0.324-12.098c0.013-3.225-4.987-3.224-5,0  c-0.015,3.772-0.129,7.538-0.292,11.3c-0.904-0.237-1.805-0.514-2.688-0.811c-0.084-0.543-0.481-1.029-1.191-1.029  c-0.614,0-1.229,0-1.843,0c-1.496,0-1.59,1.964-0.333,2.456c1.914,0.747,3.941,1.398,5.955,1.857  c-0.646,12.753-2.014,25.456-3.526,38.143c-4.282-0.515-8.564-1.07-12.885-1.523c-10.549-25.377-23.217-50.487-25.499-78.295  C88.204,89.324,91.129,68.333,103.355,51.888z M112.392,227.096c-1.648-2.293-1.119-4.83-0.032-7.167  c11.052,4.686,23.959,5.383,35.822,5.762c11.53,0.369,23.738,0.13,34.603-4.131c0.113,0.483,0.18,0.954,0.2,1.409  c-6.652,1.789-13.374,3.08-20.306,2.897c-0.807-0.021-0.805,1.229,0,1.25c6.909,0.183,13.604-1.071,20.238-2.835  c-0.09,0.582-0.259,1.137-0.495,1.669c-6.467,1.821-12.96,4.048-19.743,3.916c-0.807-0.016-0.805,1.234,0,1.25  c6.453,0.125,12.64-1.831,18.794-3.598c-1.239,1.603-3.157,2.947-5.483,4.066c-4.786,0.971-9.761,1.053-14.644,1.281  c-0.803,0.037-0.806,1.288,0,1.25c3.147-0.147,6.313-0.248,9.441-0.549c-8.425,2.559-18.857,3.247-23.175,3.122  c-9.048-0.262-18.225-1.368-26.808-4.345C117.844,231.318,114.282,229.726,112.392,227.096z M176.157,213.37  c-8.417,2.571-17.626,2.544-26.344,2.364c-8.145-0.168-16.312-0.777-24.315-2.333c-4.174-0.812-9.286-1.809-12.741-4.479  c-3.378-2.609-2.207-10.182,2.054-11.277c0.069-0.018,0.13-0.041,0.197-0.062c10.562,1.083,20.856,2.809,31.558,2.951  c12.397,0.165,24.786-0.723,37.021-2.703c0.565,0.643,0.992,1.503,1.286,2.481c-7.494,2.212-15.398,2.831-23.191,2.887  c-0.806,0.006-0.807,1.256,0,1.25c7.876-0.056,15.898-0.684,23.482-2.919c0.155,0.862,0.225,1.765,0.21,2.649  c-7.82,1.368-15.774,1.898-23.524,3.709c-0.785,0.184-0.452,1.389,0.332,1.205c7.612-1.778,15.421-2.321,23.107-3.637  c-0.144,1.271-0.461,2.429-0.952,3.25c-0.196,0.327-0.428,0.633-0.688,0.917c-7.355,1.486-15.119,0.763-22.467,2.598  c-0.782,0.195-0.45,1.4,0.332,1.205c6.603-1.648,13.479-1.281,20.131-2.234C179.908,212.215,177.822,212.861,176.157,213.37z   M142.781,150.505c0.286,0.854,0.788,1.539,1.616,1.906c2.259,1.002,3.915,0.214,5.112-1.346c0.301,0.242,0.649,0.449,1.083,0.589  c1.007,0.323,1.819,0.223,2.489-0.137c0.31,0.514,0.697,1.003,1.198,1.453c0.646,0.581,1.898,0.428,2.089-0.552  c0.898-4.615,3.478-4.587,7.629-5.09c0.095,11.309,0.781,22.604,1.588,33.891c-0.697,0.101-0.673,1.218,0.088,1.229  c0.079,1.095,0.155,2.188,0.235,3.283c-1.742,0.038-3.484,0.077-5.228,0.136c-0.804,0.027-0.807,1.277,0,1.25  c1.773-0.06,3.547-0.101,5.318-0.142c0.071,0.971,0.143,1.94,0.213,2.91c-6.526,0.5-13.078,0.69-19.646,0.649  c-4.522-0.028-8.973-0.37-13.402-0.833c1.512-12.646,2.889-25.31,3.557-38.021C138.98,151.749,141.069,151.412,142.781,150.505z   M171.179,189.441c-0.063-0.865-0.126-1.729-0.189-2.595c4.241-0.13,8.473-0.351,12.686-0.892c-0.294,0.632-0.571,1.272-0.855,1.91  C178.95,188.519,175.07,189.045,171.179,189.441z M184.318,184.608c-4.455,0.624-8.933,0.866-13.42,0.998  c-0.076-1.047-0.15-2.096-0.226-3.144c5.062,0.001,10.121-0.122,15.116-0.875C185.284,182.587,184.801,183.598,184.318,184.608z   M186.499,180.225c-5.253,0.883-10.584,0.997-15.915,0.991c-0.076-1.061-0.152-2.12-0.226-3.181  c5.911-0.517,11.827-0.809,17.758-0.886C187.565,178.168,187.031,179.195,186.499,180.225z M146.151,275.888  c-9.587-0.145-21.256-4.425-24.37-13.732c8.952,2.974,18.958,3.613,28.219,3.243c7.918-0.315,16.259-1.256,23.773-4.109  c-0.402,0.906-0.856,1.769-1.362,2.584c-6.673,2.866-14.221,3.268-21.398,2.993c-0.807-0.031-0.803,1.22,0,1.25  c6.729,0.257,13.75-0.118,20.133-2.418c-0.458,0.592-0.944,1.157-1.458,1.694c-6.498,1.379-13.037,1.783-19.675,1.808  c-0.806,0.003-0.806,1.253,0,1.25c6.052-0.021,12.028-0.361,17.957-1.442c-0.837,0.711-1.724,1.365-2.655,1.961  c-0.126-0.08-0.282-0.12-0.467-0.08c-5.668,1.241-11.394,1.31-17.168,1.312c-0.806,0-0.806,1.25,0,1.25  c4.922-0.002,9.814-0.075,14.659-0.835C157.451,274.94,151.75,275.973,146.151,275.888z M177.896,242.243  c-5.384,2.951-11.382,4.472-17.549,4.29c-0.807-0.023-0.805,1.227,0,1.25c6.205,0.184,12.29-1.32,17.745-4.222  c0.069,1.113-0.127,2.115-0.568,3.03c-6.204,1.735-12.313,3.725-18.844,3.608c-0.807-0.015-0.805,1.235,0,1.25  c6.142,0.11,11.913-1.6,17.741-3.253c-1.119,1.23-2.762,2.302-4.897,3.286c-6.262,2.888-13.892,3.5-20.684,3.876  c-7.625,0.421-15.261-0.157-22.713-1.849c-3.401-0.771-8.667-1.907-10.861-4.955c-0.913-1.268-0.91-4.563-0.62-7.068  c9.654,3.891,20.774,4.843,30.967,5.202c7.938,0.279,20.222-1.255,30.017-5.4C177.736,241.615,177.825,241.934,177.896,242.243z" fill="#2F353A"/></svg>