<svg viewBox="0 0 512 512" xml:space="preserve" xmlns="http://www.w3.org/2000/svg"><path d="M445.788 154.561 259.027 87.858a9.004 9.004 0 0 0-6.055 0l-186.76 66.703a9 9 0 0 0 .18 17.014l75.642 25.221v87.9a8.999 8.999 0 0 0 6.512 8.649l104.966 30.203a8.986 8.986 0 0 0 4.976 0l33.051-9.51a9 9 0 0 0-4.977-17.299L256 305.533l-95.966-27.613v-75.123l93.119 31.048a8.993 8.993 0 0 0 5.693 0l16.72-5.574.005-.002 14.083-4.695a9 9 0 0 0 5.691-11.385c-1.573-4.715-6.669-7.265-11.385-5.691L256 215.82l-83.686-27.903-75.499-25.173L256 105.89l159.185 56.854-57.064 19.027h-.001l-7.043 2.348-5.806 1.936h-.001l-9.002 3.001a8.999 8.999 0 0 0-5.691 11.385c1.572 4.715 6.667 7.26 11.385 5.691l10.005-3.336v75.123l-11.218 3.228a9 9 0 0 0 4.977 17.299l17.729-5.102a9 9 0 0 0 6.512-8.649v-87.9l75.642-25.221a8.997 8.997 0 0 0 6.152-8.443 9.002 9.002 0 0 0-5.973-8.57z" fill="#918f94" class="fill-000000"></path><path d="M325.213 204.986c-.006-.208-.012-.417-.032-.625-.015-.151-.041-.298-.063-.447-.021-.14-.036-.279-.063-.417-.032-.166-.076-.328-.117-.49-.031-.12-.058-.241-.093-.36-.048-.16-.105-.314-.161-.47-.044-.121-.084-.242-.133-.361-.058-.142-.125-.278-.189-.416-.061-.129-.119-.26-.187-.387-.064-.122-.137-.238-.206-.355-.08-.135-.158-.271-.245-.403-.073-.11-.154-.215-.233-.323-.094-.128-.185-.258-.285-.382-.097-.118-.201-.229-.303-.341-.094-.104-.183-.21-.281-.31a8.773 8.773 0 0 0-.502-.462c-.048-.042-.09-.087-.139-.128l-.022-.019-.017-.014-60.186-50.075a9 9 0 1 0-11.512 13.837l56.98 47.408v159.556c-9.988 2.052-17.522 10.91-17.522 21.496v12.225c0 12.1 9.844 21.943 21.943 21.943h12.226c12.1 0 21.943-9.844 21.943-21.943v-12.225c0-11.645-9.119-21.195-20.59-21.897V205.226c.001-.08-.009-.159-.011-.24zm2.601 185.512v12.225a3.947 3.947 0 0 1-3.943 3.943h-12.226a3.947 3.947 0 0 1-3.943-3.943v-12.225a3.947 3.947 0 0 1 3.943-3.943h12.226a3.946 3.946 0 0 1 3.943 3.943z" fill="#918f94" class="fill-000000"></path></svg>