<svg viewBox="0 0 16 16" xml:space="preserve" xmlns="http://www.w3.org/2000/svg" enable-background="new 0 0 16 16"><path d="M8 2C4.69 2 2 4.69 2 8s2.69 6 6 6 6-2.69 6-6-2.69-6-6-6zm0 11c-2.76 0-5-2.24-5-5s2.24-5 5-5 5 2.24 5 5-2.24 5-5 5z" fill="#918f94" class="fill-000000"></path><path d="M8.43 4.55c-.96-.24-2.03.37-2.32 1.31-.09.27.06.55.32.63s.54-.06.63-.33c.14-.44.68-.75 1.14-.64.45.11.79.64.7 1.1-.08.46-.57.83-1.04.77a.497.497 0 0 0-.56.5l-.01 1.56c0 .28.22.5.5.5s.5-.22.5-.5l.01-1.09c.77-.15 1.45-.78 1.59-1.57.18-.97-.49-2-1.46-2.24zM7.81 10.39H7.8c-.27 0-.49.23-.5.5V11c0 .27.22.45.49.46h.01c.27 0 .49-.25.5-.52v-.08a.48.48 0 0 0-.49-.47z" fill="#918f94" class="fill-000000"></path></svg>