<svg data-name="Layer 1" viewBox="0 0 64 64" xmlns="http://www.w3.org/2000/svg"><path d="M54 34h-3v-2c0-.43-.28-.81-.68-.95L45 29.28V29c0-.55-.45-1-1-1-5.4 0-10.04 3.31-12 8-1.96-4.69-6.6-8-12-8-.55 0-1 .45-1 1v.28l-5.32 1.77A1 1 0 0 0 13 32v2h-3c-.55 0-1 .45-1 1v24c0 .55.45 1 1 1h16.59l1.71 1.71c.19.19.44.29.71.29h6c.27 0 .52-.11.71-.29L37.43 60h16.59c.55 0 1-.45 1-1V35c0-.55-.45-1-1-1Zm-39-1.28 4-1.33V49c0 .55.45 1 1 1 4.51 0 8.39 2.73 10.09 6.62-5.18-5.42-12.26-5.17-15.09-4.8v-19.1ZM29.41 60l-1.71-1.71a.99.99 0 0 0-.71-.29H11V36h2v17c0 .31.14.6.38.79.24.19.56.26.86.18.11-.03 10.31-2.42 15.99 6.03h-.82ZM31 54.09c-2.14-3.39-5.79-5.73-10-6.05v-18c5.6.51 10 5.23 10 10.96v13.09ZM45 49V31.39l4 1.33v19.1c-2.83-.37-9.91-.62-15.09 4.8C35.61 52.73 39.49 50 44 50c.55 0 1-.45 1-1Zm-12-8c0-5.73 4.4-10.45 10-10.96v17.99c-4.21.32-7.86 2.66-10 6.05V40.99Zm20 17H37c-.27 0-.52.11-.71.29L34.58 60h-.82c5.63-8.43 15.55-6.14 15.99-6.03.3.07.61 0 .86-.19.24-.19.38-.48.38-.79v-17h2v22ZM32 28c7.17 0 13-5.83 13-13S39.17 2 32 2 19 7.83 19 15s5.83 13 13 13Zm0-24c6.07 0 11 4.93 11 11s-4.93 11-11 11-11-4.93-11-11S25.93 4 32 4Z" fill="#918f94" class="fill-000000"></path><path d="M31 12h2v10h-2zM31 9h2v2h-2z" fill="#918f94" class="fill-000000"></path></svg>