<svg data-name="Layer 1" viewBox="0 0 512 512" xmlns="http://www.w3.org/2000/svg"><path d="M407.75 115.51c-53.32 0-96.7 37.73-96.7 84.11a74.24 74.24 0 0 0 7.06 31.62l-30.37 33.36a4.76 4.76 0 0 0 4 7.95l58.23-5.49a105.54 105.54 0 0 0 57.81 16.66c53.32 0 96.7-37.73 96.7-84.1s-43.41-84.11-96.73-84.11Zm0 158.68c-19.77 0-38.42-5.53-53.92-16a4.78 4.78 0 0 0-2.66-.81 3.39 3.39 0 0 0-.45 0l-47.64 4.49 24.27-26.64a4.78 4.78 0 0 0 .7-5.41 65.07 65.07 0 0 1-7.47-30.23c0-41.12 39.11-74.57 87.17-74.57s87.16 33.45 87.16 74.57-39.1 74.6-87.16 74.6Z" fill="#918f94" class="fill-231f20"></path><path d="M461 180.37H354.54a4.77 4.77 0 1 0 0 9.53H461a4.77 4.77 0 0 0 0-9.53ZM461 212.79h-24.92a4.77 4.77 0 0 0 0 9.54H461a4.77 4.77 0 0 0 0-9.54ZM413 212.79h-58.46a4.77 4.77 0 0 0 0 9.54H413a4.77 4.77 0 0 0 0-9.54Z" fill="#918f94" class="fill-231f20"></path><ellipse cx="103.83" cy="182.66" rx="4.8" ry="9.45" fill="#918f94" class="fill-231f20"></ellipse><ellipse cx="182.14" cy="182.66" rx="4.8" ry="9.45" fill="#918f94" class="fill-231f20"></ellipse><path d="M183.52 236c-44.32-13.42-79.88-.46-81.37.1a4.76 4.76 0 0 0-2.65 6.47c.47 1 11.88 24.8 43.48 24.8s43-23.79 43.48-24.8a4.77 4.77 0 0 0-2.94-6.57ZM143 257.79c-17.46 0-27.22-8.79-31.72-14.51a132.43 132.43 0 0 1 63.37.1c-4.56 5.73-14.31 14.41-31.65 14.41Z" fill="#918f94" class="fill-231f20"></path><path d="M266.9 265.14C279.32 246 288.56 163.41 256.76 105 234.2 63.48 194.85 41.56 143 41.56S51.77 63.48 29.2 105C-2.6 163.42 6.65 246 19.07 265.14c10 15.38 30.56 19.11 48.22 19.11a152.09 152.09 0 0 0 28.61-2.88 86.75 86.75 0 0 0 18.1 8.89l-1 10a11.19 11.19 0 0 1-7.43 9.47l-60.14 18.09a44.62 44.62 0 0 0-31.63 40.43l-1 19.84v77.59a4.77 4.77 0 0 0 9.54 0v-77.35l1-19.61A35.09 35.09 0 0 1 48.18 337l44.29-13.34L103.25 466a4.75 4.75 0 0 0 4.74 4.4h.37a4.77 4.77 0 0 0 4.39-5.12l-8.94-118.1C111 352 123.57 357.69 143 357.69s32-5.68 39.18-10.48l-8.94 118.1a4.77 4.77 0 0 0 4.39 5.12h.37a4.76 4.76 0 0 0 4.75-4.4l10.75-142.42L237.78 337a35.06 35.06 0 0 1 24.86 31.77l1 19.37v77.59a4.77 4.77 0 0 0 9.53 0v-77.87l-1-19.61a44.62 44.62 0 0 0-31.62-40.43l-60-18.08a11.25 11.25 0 0 1-7.58-9.52l-1-10a86.75 86.75 0 0 0 18.14-8.89c10.6 2.18 59.61 10.37 76.79-16.19ZM143 285.66a77.87 77.87 0 0 1-77.8-77.78 4.77 4.77 0 0 0-4.76-4.77 19.66 19.66 0 0 1-.22-39.31c4.7.43 55.2 4.11 82.76-35.53 27.57 39.64 78.06 36 82.77 35.53a19.66 19.66 0 0 1-.22 39.31 4.78 4.78 0 0 0-4.77 4.77A77.87 77.87 0 0 1 143 285.66ZM27.07 260c-9.34-14.44-20.74-93 10.51-150.44C58.67 70.75 94.13 51.09 143 51.09s84.32 19.66 105.41 58.43c31.23 57.48 19.83 136 10.49 150.48-11.11 17.17-42 15.64-58.3 13.46a87.11 87.11 0 0 0 29.59-61.15 29.19 29.19 0 0 0-4.66-58 4 4 0 0 0-.49 0c-.53.05-54.09 5-77.9-37.33a4.78 4.78 0 0 0-8.31 0c-23.81 42.32-77.37 37.38-77.9 37.33a4 4 0 0 0-.49 0 29.19 29.19 0 0 0-4.66 58 87.11 87.11 0 0 0 29.59 61.15c-16.3 2.14-47.19 3.67-58.3-13.46Zm136.36 41.21a20.85 20.85 0 0 0 14.17 17.65l6.56 2-1 13.13a4.54 4.54 0 0 0-.88.82c-.46.55-11.35 13.42-39.3 13.42s-38.84-12.87-39.26-13.38a5 5 0 0 0-.91-.88l-1-13.11 6.7-2a20.78 20.78 0 0 0 14-17.6l.82-8.21a87.56 87.56 0 0 0 39.27 0Z" fill="#918f94" class="fill-231f20"></path><path d="M59.23 395.92a4.77 4.77 0 0 0-4.77 4.76v65a4.77 4.77 0 0 0 9.54 0v-65a4.77 4.77 0 0 0-4.77-4.76ZM226.73 395.92a4.76 4.76 0 0 0-4.76 4.76v65a4.77 4.77 0 0 0 9.53 0v-65a4.76 4.76 0 0 0-4.77-4.76Z" fill="#918f94" class="fill-231f20"></path></svg>