<svg viewBox="0 0 6.35 6.35" xmlns="http://www.w3.org/2000/svg"><path d="M2.388.53a.265.264 0 0 0-.013 0 .265.264 0 0 0-.067.016 2.723 2.723 0 0 0 .625 5.256 2.724 2.724 0 0 0 2.872-1.765.265.264 0 0 0-.157-.34.265.264 0 0 0-.34.159 2.189 2.189 0 0 1-2.312 1.42 2.192 2.192 0 0 1-.506-4.235.265.264 0 0 0 .158-.339.265.264 0 0 0-.26-.173Zm1.067.007a.507.507 0 0 0-.549.505l.004 2.134c0 .147.12.264.265.264l2.106.004c.54-.004.518-.563.518-.563a2.66 2.66 0 0 0-.756-1.583A2.635 2.635 0 0 0 3.455.537Z" style="line-height:normal;font-variant-ligatures:normal;font-variant-position:normal;font-variant-caps:normal;font-variant-numeric:normal;font-variant-alternates:normal;font-variant-east-asian:normal;font-feature-settings:normal;font-variation-settings:normal;text-indent:0;text-align:start;text-decoration-line:none;text-decoration-style:solid;text-decoration-color:#000;text-transform:none;text-orientation:mixed;white-space:normal;shape-padding:0;shape-margin:0;inline-size:0;isolation:auto;mix-blend-mode:normal;solid-color:#000;solid-opacity:1" color="#000000" font-style="normal" font-variant="normal" font-weight="400" font-stretch="normal" font-size="medium" font-family="sans-serif" text-decoration="none" letter-spacing="normal" word-spacing="normal" writing-mode="lr-tb" direction="ltr" dominant-baseline="auto" baseline-shift="baseline" text-anchor="start" clip-rule="nonzero" display="inline" overflow="visible" visibility="visible" opacity="1" color-interpolation="sRGB" color-interpolation-filters="linearRGB" vector-effect="none" fill="#918f94" fill-opacity="1" fill-rule="nonzero" stroke="none" stroke-width=".529111" stroke-linecap="round" stroke-linejoin="round" stroke-miterlimit="4" stroke-dasharray="none" stroke-dashoffset="0" stroke-opacity="1" color-rendering="auto" image-rendering="auto" shape-rendering="auto" text-rendering="auto" enable-background="accumulate" stop-color="#918f94" stop-opacity="1" class="fill-000000 stop-color-000000"></path></svg>