<?xml version="1.0" ?><svg viewBox="0 0 64 64" xmlns="http://www.w3.org/2000/svg"><defs><style>.cls-1{fill:none;}.cls-2{fill:#010101;}</style></defs><title/><g data-name="Layer 3" id="Layer_3"><rect class="cls-1" height="64" width="64"/></g><g data-name="Design Convert" id="Design_Convert"><path class="cls-2" d="M56,57a1,1,0,0,1-.71-.29l-48-48A1,1,0,1,1,8.71,7.29l48,48a1,1,0,0,1,0,1.42A1,1,0,0,1,56,57Z"/><path class="cls-2" d="M8,57a1,1,0,0,1-.71-.29,1,1,0,0,1,0-1.42l48-48a1,1,0,1,1,1.42,1.42l-48,48A1,1,0,0,1,8,57Z"/></g></svg>