<svg viewBox="0 0 48 48" xml:space="preserve" xmlns="http://www.w3.org/2000/svg"><path d="M24 48C10.767 48 0 37.233 0 24S10.767 0 24 0s24 10.767 24 24-10.767 24-24 24zm0-46C11.869 2 2 11.869 2 24s9.869 22 22 22 22-9.869 22-22S36.131 2 24 2z" fill="#918f94" class="fill-000000"></path><path d="M24 28c-2.206 0-4-1.794-4-4s1.794-4 4-4 4 1.794 4 4-1.794 4-4 4zm0-6c-1.103 0-2 .897-2 2s.897 2 2 2 2-.897 2-2-.897-2-2-2z" fill="#918f94" class="fill-000000"></path><path d="M26.122 22.879a.999.999 0 0 1-.707-1.707l9.899-9.899a.999.999 0 1 1 1.414 1.414l-9.899 9.899a1 1 0 0 1-.707.293zM9 25H5a1 1 0 1 1 0-2h4a1 1 0 1 1 0 2zM6.447 32.271a.998.998 0 0 1-.382-1.924l3.696-1.53a1 1 0 1 1 .764 1.848l-3.696 1.53a1.012 1.012 0 0 1-.382.076zM41.552 32.271a.993.993 0 0 1-.382-.076l-3.695-1.531a1.001 1.001 0 0 1 .766-1.848l3.695 1.531a1.001 1.001 0 0 1-.384 1.924zM42.999 25.001l-4-.001a1 1 0 0 1 0-2l4 .001a1 1 0 1 1 0 2zM37.858 19.26a.998.998 0 0 1-.382-1.924l3.695-1.529a1 1 0 1 1 .764 1.848l-3.695 1.529a1.009 1.009 0 0 1-.382.076zM29.74 11.142a1.001 1.001 0 0 1-.923-1.383l1.531-3.694a1 1 0 0 1 1.848.766l-1.531 3.694a1.004 1.004 0 0 1-.925.617zM24 10a1 1 0 0 1-1-1l.001-3.999a1 1 0 1 1 2 0L25 9a1 1 0 0 1-1 1zM18.26 11.142a.998.998 0 0 1-.924-.617L15.807 6.83a1 1 0 0 1 1.848-.766l1.529 3.695a1 1 0 0 1-.924 1.383zM13.394 14.394c-.256 0-.512-.098-.708-.293l-2.827-2.829a1 1 0 0 1 1.415-1.414l2.827 2.829a1 1 0 0 1-.707 1.707zM10.142 19.26c-.127 0-.257-.024-.383-.076l-3.695-1.532a1.001 1.001 0 0 1 .766-1.848l3.695 1.532a1.001 1.001 0 0 1-.383 1.924zM33 40H15a1 1 0 0 1-1-1v-6a1 1 0 0 1 1-1h18a1 1 0 0 1 1 1v6a1 1 0 0 1-1 1zm-17-2h16v-4H16v4z" fill="#918f94" class="fill-000000"></path></svg>