<svg viewBox="0 0 512 512" xmlns="http://www.w3.org/2000/svg"><path d="m414.28 315.885-.007-.007-.006-.007a20.915 20.915 0 0 0-9.507-6.06L266.3 267.96a35.3 35.3 0 0 0-20.584-.002l-138.475 41.854a20.907 20.907 0 0 0-9.499 6.058l-.006.007-.006.007a20.823 20.823 0 0 0-5.277 13.846v110.1a20.691 20.691 0 0 0 14.769 19.909l138.436 42.044A35.318 35.318 0 0 0 256 503.325a5.492 5.492 0 0 0 1.42-.192c-.012.046-.018.095-.03.141a35.093 35.093 0 0 0 8.94-1.488l138.558-42.083a20.69 20.69 0 0 0 14.658-19.873v-110.1a20.817 20.817 0 0 0-5.266-13.846ZM250.5 491.7q-.823-.19-1.634-.439l-138.448-42.047a9.754 9.754 0 0 1-6.965-9.382V329.73a9.78 9.78 0 0 1 .74-3.729l143.313 43.53.522.159 2.472.75Zm5.5-131.084-139.068-42.24 131.974-39.89a24.373 24.373 0 0 1 14.206.003l131.965 39.886-43.324 13.159-64.776-19.523a3.774 3.774 0 0 0-2.175-.02l-32.655 9.272a2.014 2.014 0 0 0-.03 3.863l60.684 18.239Zm152.546 79.216a9.735 9.735 0 0 1-6.877 9.353l-138.55 42.081q-.802.246-1.619.435V370.442l60.592-18.403v45.024a3.89 3.89 0 0 0 4.92 3.752l31.374-8.642a3.887 3.887 0 0 0 2.857-3.751v-47.05a9.364 9.364 0 0 0-.077-1.199v-.002l47.38-14.39Z" fill="#918f94" class="fill-000000"></path><path d="m270.915 474.592 43.627-14.04v-11.183l-43.627 14.04v11.183zM270.915 454.119l43.627-14.04v-11.183l-43.627 14.04v11.183zM242.8 234.834a24.832 24.832 0 0 0 25.684 0c25.77-15.543 81.336-60.477 81.21-158.925A13.85 13.85 0 0 0 336.99 62.05c-16.902-1.278-47.66-8.14-69.566-39.194a14.39 14.39 0 0 0-23.561 0c-21.906 31.054-52.664 37.916-69.566 39.194a13.85 13.85 0 0 0-12.706 13.859c-.125 98.448 55.44 143.382 81.21 158.925ZM190.926 82.956a108.072 108.072 0 0 0 59.782-32.365 6.772 6.772 0 0 1 9.87 0 108.061 108.061 0 0 0 59.782 32.365 6.833 6.833 0 0 1 5.59 7.084c-4.194 76.918-48.649 112.076-68.312 123.934a3.825 3.825 0 0 1-3.987.002c-19.665-11.86-64.12-47.02-68.314-123.936a6.833 6.833 0 0 1 5.59-7.084Z" fill="#918f94" class="fill-000000"></path><path d="M256.037 168.72a38.606 38.606 0 0 0 38.512-36.444h-12.181a26.417 26.417 0 1 1-26.33-28.54v-12.16a38.572 38.572 0 1 0 0 77.145Z" fill="#918f94" class="fill-000000"></path><path d="m245.363 117.485-9.79 8.948 14.577 15.949a6.634 6.634 0 0 0 4.852 2.157h.043a6.635 6.635 0 0 0 4.837-2.094l30.946-32.984-9.675-9.076-26.045 27.761Z" fill="#918f94" class="fill-000000"></path></svg>