<svg viewBox="0 0 800 800" xml:space="preserve" xmlns="http://www.w3.org/2000/svg"><g fill="#918f94" class="fill-4d4d4d"><path d="M561.335 744.605H448.478l110.428-541.696c1.955-9.574-4.224-18.911-13.798-20.866l-24.566-5.014L542.64 68.674c1.944-9.574-4.224-18.911-13.798-20.865l-134.571-27.44c-4.58-.928-9.377 0-13.285 2.586a17.648 17.648 0 0 0-7.58 11.213l-22.09 108.355-24.567-4.995a17.755 17.755 0 0 0-13.295 2.566 17.714 17.714 0 0 0-7.57 11.232l-120.95 593.279h-57.811c-9.771 0-17.688 7.917-17.688 17.688 0 9.771 7.916 17.688 17.688 17.688h434.212c9.762 0 17.688-7.917 17.688-17.688-.001-9.771-7.926-17.688-17.688-17.688zM397.192 557.27c-9.555-1.935-18.922 4.225-20.865 13.799l-9.377 46.014-48.739-9.929 9.376-46.016c1.955-9.572-4.224-18.91-13.798-20.865-9.594-1.934-18.912 4.225-20.866 13.8l-9.376 46.015-31.724-6.475 15.595-76.515 183.705 37.447-15.595 76.515-33.914-6.909 9.377-46.016c1.945-9.574-4.234-18.91-13.799-20.865zM290.278 404.973l183.705 37.447-15.793 77.461-33.913-6.909 9.376-46.015c1.954-9.574-4.225-18.911-13.799-20.866-9.535-1.934-18.901 4.225-20.865 13.8l-9.377 46.015-48.72-9.93 9.376-46.015c1.945-9.574-4.234-18.912-13.798-20.866-9.534-1.935-18.912 4.225-20.866 13.799l-9.376 46.015-31.743-6.475 15.793-77.461zm22.661-111.179 183.705 37.447-15.595 76.515-33.914-6.909 9.189-45.068c1.944-9.573-4.225-18.91-13.799-20.865-9.555-1.935-18.901 4.225-20.865 13.799l-9.189 45.067-48.73-9.93 9.189-45.087c1.955-9.574-4.224-18.911-13.798-20.866-9.555-1.895-18.911 4.226-20.866 13.799l-9.188 45.088-31.733-6.476 15.594-76.514zm91.597-235.228 99.905 20.372-18.565 91.023-99.896-20.372 18.556-91.023zm-67.522 117.161 24.526 4.994c.011 0 .021.02.04.02l134.562 27.42h.009l24.558 5.014-16.996 83.403-33.914-6.909 10.699-52.489c1.955-9.574-4.224-18.932-13.799-20.866-9.584-1.954-18.91 4.225-20.865 13.799l-10.699 52.489-48.72-9.929 10.699-52.51c1.954-9.555-4.225-18.911-13.798-20.865-9.516-1.915-18.912 4.224-20.866 13.798l-10.699 52.51-31.743-6.475 17.006-83.404zm-92.257 452.549 183.704 37.447-16.088 78.882h-29.838c.01-13.146-1.125-25.682-3.909-36.814-7.027-28.091-21.961-45.817-42.037-49.904l-5.399-1.105c-34.22-7.008-69.396 30.006-85.949 87.824h-24.202l23.718-116.33zm102.61 116.329h-65.084c12.298-35.414 31.564-55.292 41.85-53.16l5.389 1.105c5.646 1.145 11.45 10.502 14.786 23.827 2.083 8.311 3 17.965 3.059 28.228zM672.878 744.605h-43.381c-9.771 0-17.687 7.917-17.687 17.688 0 9.771 7.916 17.688 17.687 17.688h43.381c9.761 0 17.687-7.917 17.687-17.688-.001-9.771-7.926-17.688-17.687-17.688z"></path></g></svg>