<?xml version="1.0" ?><svg data-name="Design Convert" id="Design_Convert" viewBox="0 0 64 64" xmlns="http://www.w3.org/2000/svg"><defs><style>.cls-1{fill:#010101;}</style></defs><title/><path class="cls-1" d="M53,20H11a1,1,0,0,1-1-1V17a5,5,0,0,1,5-5H49a5,5,0,0,1,5,5v2A1,1,0,0,1,53,20ZM12,18H52V17a3,3,0,0,0-3-3H15a3,3,0,0,0-3,3Z"/><path class="cls-1" d="M40,14H24a1,1,0,0,1-1-1V12a5,5,0,0,1,5-5h8a5,5,0,0,1,5,5v1A1,1,0,0,1,40,14ZM25,12H39a3,3,0,0,0-3-3H28A3,3,0,0,0,25,12Z"/><path class="cls-1" d="M39,50h-.17A1,1,0,0,1,38,48.83L41,31a1,1,0,1,1,2,.33L40,49.17A1,1,0,0,1,39,50Z"/><path class="cls-1" d="M25,50a1,1,0,0,1-1-.83L21,31.28A1,1,0,1,1,23,31l3,17.88A1,1,0,0,1,25.17,50Z"/><path class="cls-1" d="M41.58,57H22.42a5,5,0,0,1-4.94-4.23L13,24.15A1,1,0,0,1,14,23H50a1,1,0,0,1,1,1.15L46.52,52.77A5,5,0,0,1,41.58,57ZM15.17,25l4.29,27.46a3,3,0,0,0,3,2.54H41.58a3,3,0,0,0,3-2.54L48.83,25Z"/><path class="cls-1" d="M32,50a1,1,0,0,1-1-1V31a1,1,0,0,1,2,0V49A1,1,0,0,1,32,50Z"/></svg>