<svg viewBox="0 0 32 32" xmlns="http://www.w3.org/2000/svg"><path d="M27 4H17V3a1 1 0 0 0-2 0v1H5a3 3 0 0 0-3 3v16a3 3 0 0 0 3 3h6.7l-1.55 2.47a1 1 0 0 0 .32 1.38 1 1 0 0 0 1.38-.32l2.2-3.53H18l2.2 3.53a1 1 0 0 0 1.38.32 1 1 0 0 0 .32-1.38L20.3 26H27a3 3 0 0 0 3-3V7a3 3 0 0 0-3-3ZM4 7a1 1 0 0 1 1-1h22a1 1 0 0 1 1 1v13h-2v-1a3 3 0 0 0-3-3h-2a3 3 0 0 0-3 3v1H4Zm20 13h-4v-1a1 1 0 0 1 1-1h2a1 1 0 0 1 1 1Zm4 3a1 1 0 0 1-1 1H5a1 1 0 0 1-1-1v-1h24Z" data-name="board, background, frame, school, chalkboard, billboard, chalk, blackboard, backdrop, classroom" fill="#918f94" class="fill-000000"></path></svg>