<svg viewBox="0 0 512 512" xmlns="http://www.w3.org/2000/svg"><path d="m352.237 209.629 6.498 2.166 2.53-7.59-6.498-2.166a11.994 11.994 0 0 1-7.292-6.791 11.994 11.994 0 0 1 .353-9.96l15.75-31.499-7.156-3.578-15.75 31.5a19.99 19.99 0 0 0-.588 16.598 19.99 19.99 0 0 0 12.153 11.32ZM374.211 148.423l31.999-16.001 3.578 7.155-31.999 16.002zM376 164h24v8h-24zM296 164h24v8h-24zM352 220c-11.028 0-20 8.972-20 20s8.972 20 20 20 20-8.972 20-20-8.972-20-20-20Zm0 32c-6.617 0-12-5.383-12-12s5.383-12 12-12 12 5.383 12 12-5.383 12-12 12Z" fill="#918f94" class="fill-000000"></path><path d="M453.99 323.672 404 316.53v-40.11c24.017-13.542 39.388-38.95 39.982-66.746l6.589-6.589c6.08-6.08 9.429-14.165 9.429-22.765a32.155 32.155 0 0 0-22.014-30.542l-1.986-.662V106.76a47.424 47.424 0 0 0 14.497-12.755C456.625 85.833 460 75.708 460 65.494V24a4 4 0 0 0-5.265-3.795l-18.737 6.246c-18.543 6.181-38.557 7.878-57.877 4.905l-38.949-5.992c-22.697-3.492-45.93 5.298-60.632 22.94a65.991 65.991 0 0 0-14.61 51.497l3.738 26.162A15.897 15.897 0 0 0 260 124a15.88 15.88 0 0 0-8 2.165V108c0-8.822-7.178-16-16-16s-16 7.178-16 16v10.165a15.88 15.88 0 0 0-8-2.165c-8.822 0-16 7.178-16 16v10.165a15.88 15.88 0 0 0-8-2.165c-8.822 0-16 7.178-16 16h-20v8h20v56.775a36.13 36.13 0 0 0 7.889 22.489l23.52 29.401-63.584 156.072a45.865 45.865 0 0 0 4.42 42.96A45.864 45.864 0 0 0 182.364 492c21.694 0 40.132-14.79 44.839-35.968l27.775-124.988 47.244-6.75L348.8 386.4a4.001 4.001 0 0 0 6.4 0l46.579-62.105 51.079 7.297a84.033 84.033 0 0 1 40.64 17.599l5.003-6.243a92.044 92.044 0 0 0-44.512-19.276Zm-23.255-167.877 4.721 1.574A24.163 24.163 0 0 1 452 180.32a24.034 24.034 0 0 1-7.086 17.108l-7.743 7.742A4.001 4.001 0 0 0 436 208c0 27.594-16.232 52.802-41.353 64.221a103.04 103.04 0 0 1-85.294 0C284.232 260.802 268 235.594 268 208a4.001 4.001 0 0 0-1.171-2.829l-7.743-7.742A24.034 24.034 0 0 1 252 180.321a24.163 24.163 0 0 1 16.544-22.952l4.721-1.574A4 4 0 0 0 276 152v-22.046c24.366-18.835 55.685-27.29 86.247-23.22l43.954 5.862a47.467 47.467 0 0 0 21.799-2.2V152a4 4 0 0 0 2.735 3.795Zm-146.05-102.37c11.043-13.25 27.563-20.817 44.585-20.817 2.889 0 5.792.218 8.686.663l38.948 5.992c20.572 3.164 41.88 1.36 61.624-5.222L452 29.55v35.944c0 8.494-2.807 16.915-7.904 23.711-8.567 11.423-22.685 17.347-36.837 15.461l-43.955-5.86c-31.066-4.143-62.861 3.821-88.303 21.92l-3.15-22.057a57.979 57.979 0 0 1 12.834-45.243ZM260 132c4.411 0 8 3.589 8 8v9.117l-1.986.662A32.137 32.137 0 0 0 252 159.095V140c0-4.411 3.589-8 8-8Zm-40.608 322.296c-3.887 17.49-19.114 29.704-37.03 29.704-12.84 0-24.313-6.111-31.477-16.767-7.165-10.655-8.496-23.587-3.651-35.478l64.47-158.246a4 4 0 0 0-.58-4.008l-24.988-31.234A28.104 28.104 0 0 1 180 220.775V156c0-4.411 3.589-8 8-8s8 3.589 8 8v60h8v-84c0-4.411 3.589-8 8-8s8 3.589 8 8v84h8V108c0-4.411 3.589-8 8-8s8 3.589 8 8v108h8v-14.449c.46.523.932 1.038 1.43 1.535l6.588 6.589c.354 16.563 5.961 32.276 15.51 45.14l-14.357 14.356a4.004 4.004 0 0 0-1.076 1.961l-40.703 183.164Zm48.26-180.291 12.989-12.988A78.354 78.354 0 0 0 300 276.42v40.11l-43.169 6.167 10.82-48.693ZM352 377.333l-44-58.666v-38.304c14.043 6.06 29.02 9.098 44 9.098s29.957-3.039 44-9.099v38.304l-44 58.667Z" fill="#918f94" class="fill-000000"></path><path d="M49.892 108.728C45.982 120.048 44 131.905 44 144c0 59.551 48.449 108 108 108 2.69 0 5.404-.1 8.066-.297l-.59-7.978c-2.467.182-4.982.275-7.476.275-55.14 0-100-44.86-100-100 0-11.744 2.015-23.24 5.99-34.172a4 4 0 0 0-.182-3.156l-26.05-52.1 50.093 15.412a4.003 4.003 0 0 0 3.83-.83A99.865 99.865 0 0 1 152 44c31.31 0 60.224 14.255 79.33 39.11l6.343-4.876C217.04 51.394 185.813 36 152 36a107.852 107.852 0 0 0-69.919 25.685L25.176 44.177a3.999 3.999 0 0 0-4.754 5.612l29.47 58.939Z" fill="#918f94" class="fill-000000"></path><path d="M72 156h24v8H72zM112 156h24v8h-24zM90.672 422.192l-52.1 26.05 15.412-50.093a4 4 0 0 0-.83-3.83A99.865 99.865 0 0 1 28 328c0-34.27 17.255-65.778 46.156-84.282l-4.313-6.738C38.633 256.962 20 290.988 20 328c0 25.677 9.104 50.415 25.685 69.919l-17.508 56.905a4 4 0 0 0 5.612 4.754l58.939-29.47C104.048 434.018 115.905 436 128 436v-8c-11.744 0-23.24-2.015-34.172-5.99a4.006 4.006 0 0 0-3.156.182Z" fill="#918f94" class="fill-000000"></path><path d="M48 348h24v8H48zM88 348h24v8H88zM128 348h24v8h-24zM392 420h80v8h-80zM294.21 139.578l3.578-7.156 32 16-3.577 7.155z" fill="#918f94" class="fill-000000"></path></svg>