<svg viewBox="0 0 32 32" xmlns="http://www.w3.org/2000/svg"><path d="M23 30a7 7 0 1 1 7-7 7.008 7.008 0 0 1-7 7Zm0-12a5 5 0 1 0 5 5 5.005 5.005 0 0 0-5-5Z" fill="#918f94" class="fill-000000"></path><path d="m26 24.586-2-2V20h-2v3.414L24.586 26 26 24.586zM8 16h6v2H8zM8 10h12v2H8z" fill="#918f94" class="fill-000000"></path><path d="M26 4a2.002 2.002 0 0 0-2-2H4a2.002 2.002 0 0 0-2 2v13a10.981 10.981 0 0 0 5.824 9.707L13 29.467V27.2l-4.234-2.258A8.986 8.986 0 0 1 4 17V4h20v9h2Z" fill="#918f94" class="fill-000000"></path><path   d="M0 0h32v32H0z" fill="none"></path></svg>