<svg data-name="Layer 1" viewBox="0 0 512 512" xmlns="http://www.w3.org/2000/svg"><path d="M477.1 136.3a6 6 0 0 0-3.34-3.18l-279-107.7a6 6 0 0 0-7.8 3.45L171 70.28l-57.24-10.65a6.08 6.08 0 0 0-7 4.82l-8.17 43.65H40.41a6 6 0 0 0-6 6V481a6 6 0 0 0 6 6H339.5a6 6 0 0 0 5.83-4.53l131.88-341.55a6 6 0 0 0-.11-4.62Zm-131.57-21.22 54.11 10.08-54.11 290.39ZM196 38.84l180.83 69.8L183 72.53ZM117.48 72.6l190.58 35.5h-197.2Zm-71 47.56h287v354.77h-287Zm310.91 297.58 55.05-295.36 51.35 19.82Z" fill="#918f94" class="fill-000000"></path><path d="M282.63 392.92H97.28a6 6 0 0 0 0 12.06h185.35a6 6 0 1 0 0-12.06ZM282.63 348H97.28a6 6 0 1 0 0 12.06h185.35a6 6 0 1 0 0-12.06ZM282.63 303.05H97.28a6 6 0 0 0 0 12.06h185.35a6 6 0 1 0 0-12.06ZM282.63 258.11H97.28a6 6 0 1 0 0 12.06h185.35a6 6 0 1 0 0-12.06ZM97.28 225.23h138.31a6 6 0 1 0 0-12.06H97.28a6 6 0 1 0 0 12.06Z" fill="#918f94" class="fill-000000"></path></svg>