<svg viewBox="0 0 24 24" xmlns="http://www.w3.org/2000/svg"><g display="inline"><path d="M12 292.65a1 1 0 0 0-1 1v2.08a6.954 6.954 0 0 0-3.18 1.324l-1.476-1.476a.977.977 0 0 0-1.414 0 1 1 0 0 0 0 1.414l1.474 1.474a6.957 6.957 0 0 0-1.324 3.184H3a1 1 0 0 0 0 2h2.08a6.948 6.948 0 0 0 1.324 3.182l-1.474 1.474a1 1 0 0 0 1.414 1.414l1.472-1.472A6.955 6.955 0 0 0 11 309.57v2.08a1 1 0 0 0 2 0v-2.08a6.955 6.955 0 0 0 3.184-1.322l1.472 1.472a1 1 0 0 0 1.414-1.414l-1.474-1.474c.686-.916 1.153-2 1.324-3.182H21a1 1 0 0 0 0-2h-2.08a6.957 6.957 0 0 0-1.324-3.184l1.474-1.474a1 1 0 0 0 0-1.414c-.401-.412-1.045-.369-1.414 0l-1.476 1.476A6.954 6.954 0 0 0 13 295.73v-2.08a1 1 0 0 0-1-1zm0 5c2.773 0 5 2.227 5 5s-2.227 5-5 5-5-2.227-5-5 2.227-5 5-5z" style="line-height:normal;font-variant-ligatures:normal;font-variant-position:normal;font-variant-caps:normal;font-variant-numeric:normal;font-variant-alternates:normal;font-variant-east-asian:normal;font-feature-settings:normal;font-variation-settings:normal;text-indent:0;text-align:start;text-decoration-line:none;text-decoration-style:solid;text-decoration-color:#000;text-transform:none;text-orientation:mixed;white-space:normal;shape-padding:0;shape-margin:0;inline-size:0;isolation:auto;mix-blend-mode:normal;solid-color:#000;solid-opacity:1" transform="translate(0 -290.65)" color="#000000" font-style="normal" font-variant="normal" font-weight="400" font-stretch="normal" font-size="medium" font-family="sans-serif" text-decoration="none" letter-spacing="normal" word-spacing="normal" writing-mode="lr-tb" direction="ltr" dominant-baseline="auto" baseline-shift="baseline" text-anchor="start" clip-rule="nonzero" display="inline" overflow="visible" visibility="visible" opacity="1" color-interpolation="sRGB" color-interpolation-filters="linearRGB" vector-effect="none" fill="#918f94" fill-opacity="1" fill-rule="nonzero" stroke="none" stroke-linecap="round" stroke-linejoin="round" stroke-miterlimit="4" stroke-dasharray="none" stroke-dashoffset="0" stroke-opacity="1" color-rendering="auto" image-rendering="auto" shape-rendering="auto" text-rendering="auto" enable-background="accumulate" stop-color="#918f94" stop-opacity="1" class="fill-000000 stop-color-000000"></path></g></svg>