<svg viewBox="0 0 128 128" xml:space="preserve" xmlns="http://www.w3.org/2000/svg"><path d="M64.005 114.135h-.004c-27.641 0-50.129-22.487-50.131-50.128 0-27.642 22.487-50.129 50.129-50.129s50.129 22.488 50.129 50.129c0 27.64-22.485 50.128-50.123 50.128zm-.006-96.258c-25.436 0-46.129 20.693-46.129 46.129.002 25.436 20.696 46.129 46.131 46.129h.004c25.433 0 46.123-20.693 46.123-46.129S89.435 17.877 63.999 17.877z" fill="#918f94" class="fill-000000"></path><path d="M64.478 92.582c-8.949 0-16.23-6.85-16.23-15.268a2 2 0 0 1 4 0c0 6.213 5.486 11.268 12.23 11.268 6.743 0 12.229-5.055 12.229-11.268s-5.485-11.268-12.229-11.268c-8.949 0-16.23-6.849-16.23-15.268 0-8.418 7.281-15.267 16.23-15.267 4.811 0 9.342 1.988 12.434 5.455a2 2 0 0 1-2.984 2.663c-2.334-2.617-5.778-4.118-9.449-4.118-6.744 0-12.23 5.054-12.23 11.267 0 6.213 5.486 11.268 12.23 11.268 8.948 0 16.229 6.85 16.229 15.268s-7.282 15.268-16.23 15.268z" fill="#918f94" class="fill-000000"></path><path d="M64.032 99.842a2 2 0 0 1-2-2v-67.59a2 2 0 0 1 4 0v67.59a2 2 0 0 1-2 2z" fill="#918f94" class="fill-000000"></path></svg>