<?xml version="1.0" ?><svg data-name="Слой 1" id="Слой_1" viewBox="0 0 128 128" xmlns="http://www.w3.org/2000/svg"><title/><path d="M121.16,35.27a2,2,0,1,0-3.58,1.8,60,60,0,0,1-92.31,72.8h9a2,2,0,0,0,0-4H20.12a1.72,1.72,0,0,0-.39,0l-.16,0-.21.06-.19.1a1.29,1.29,0,0,0-.16.09,1.92,1.92,0,0,0-.55.55,1.09,1.09,0,0,0-.08.15.93.93,0,0,0-.1.2,1.18,1.18,0,0,0-.07.2c0,.06,0,.11-.05.17a2.58,2.58,0,0,0,0,.39V122a2,2,0,0,0,4,0v-9.57a64,64,0,0,0,99-77.17Z"/><path d="M21.61,21.53a60.07,60.07,0,0,1,81.11-3.41h-9a2,2,0,0,0,0,4h14.13a1.75,1.75,0,0,0,.4,0l.16,0,.21-.06.18-.1a.83.83,0,0,0,.16-.09,2,2,0,0,0,.56-.55l.08-.15.1-.2a1.17,1.17,0,0,0,.06-.2l.06-.17a2.56,2.56,0,0,0,0-.39V6a2,2,0,0,0-4,0v9.58A64,64,0,0,0,6.8,92.63a2,2,0,0,0,1.79,1.11,2,2,0,0,0,.89-.21,2,2,0,0,0,.89-2.69A59.93,59.93,0,0,1,21.61,21.53Z"/><path d="M88.53,64.46a13.66,13.66,0,0,0,4.48.77,14.42,14.42,0,0,0,8.83-3.12c4.17-3.21,6.65-8.22,6.3-12.76a18.15,18.15,0,0,0-7.67-13.2c-3.37-2.35-9.16-4.64-17.64-2.22C68.61,38,65.64,51.2,65,56.57c-.23,0-.47,0-.71-.06-4-4.44-3.23-7.34.15-17a14,14,0,0,0-2.35-13.31C58.9,22,53.89,19.5,49.35,19.86a18.15,18.15,0,0,0-13.2,7.67c-2.35,3.37-4.64,9.16-2.22,17.64C38,59.4,51.22,62.36,56.58,63c0,.23,0,.46-.06.7-4.44,4-7.34,3.24-17.05-.14a14,14,0,0,0-13.31,2.35c-4.17,3.21-6.65,8.22-6.3,12.76a18.15,18.15,0,0,0,7.67,13.2A18.36,18.36,0,0,0,38.21,95.1a25.34,25.34,0,0,0,7-1C59.42,90,62.37,76.75,63,71.4c.22,0,.45,0,.68.06,4,4.46,3.27,7.35-.12,17.07a14,14,0,0,0,2.35,13.31,15.65,15.65,0,0,0,11.91,6.34,7.94,7.94,0,0,0,.85,0,18.15,18.15,0,0,0,13.2-7.67c2.35-3.37,4.64-9.16,2.22-17.64C90,68.59,76.78,65.64,71.41,65c0-.23,0-.46.07-.7C75.93,60.32,78.82,61.08,88.53,64.46Zm-4.6-26.68c5.51-1.58,10.44-1,14.26,1.65a14.12,14.12,0,0,1,6,10.22c.24,3.19-1.67,6.92-4.76,9.29a10,10,0,0,1-9.56,1.74c-8.87-3.09-13.77-4.77-19.46-.61a7.69,7.69,0,0,0-1.5-1.76C69,55.41,70.44,41.64,83.93,37.78ZM64,60.49A3.5,3.5,0,1,1,60.51,64,3.49,3.49,0,0,1,64,60.49ZM37.78,44.07c-1.58-5.51-1-10.44,1.65-14.26a14.12,14.12,0,0,1,10.22-6c3.18-.24,6.92,1.67,9.29,4.76a10,10,0,0,1,1.74,9.56c-3.09,8.87-4.77,13.77-.61,19.46a7.45,7.45,0,0,0-1.76,1.5C55.4,59,41.64,57.56,37.78,44.07Zm6.29,46.15c-5.51,1.58-10.44,1-14.26-1.65a14.12,14.12,0,0,1-6-10.22c-.24-3.19,1.67-6.92,4.76-9.29a10,10,0,0,1,9.56-1.74c8.88,3.09,13.78,4.78,19.48.6a7.47,7.47,0,0,0,1.48,1.74C59,72.5,57.6,86.35,44.07,90.22Zm46.15-6.29c1.58,5.51,1,10.44-1.65,14.26a14.12,14.12,0,0,1-10.22,6c-3.18.24-6.92-1.67-9.29-4.76a10,10,0,0,1-1.74-9.56c3.09-8.88,4.78-13.78.6-19.48a7.47,7.47,0,0,0,1.74-1.48C72.49,69,86.35,70.38,90.22,83.93Z"/></svg>