<?xml version="1.0" ?><svg height="20" version="1.1" viewBox="0 0 20 20" width="20" xmlns="http://www.w3.org/2000/svg"><g id="layer1"><path d="M 12.964844 0.095703125 C 12.805889 0.093483625 12.654204 0.10575226 12.503906 0.12890625 C 11.902715 0.22152215 11.399294 0.43880053 10.416016 0.60742188 C 9.5128581 0.76230303 8.9000581 0.53804687 8.1347656 0.34375 C 7.3694731 0.14945313 6.4403485 0.025497315 5.2929688 0.54492188 C 5.0125471 0.67254789 4.9131349 1.0209548 5.0839844 1.2773438 L 6.8574219 3.9355469 C 6.4799034 4.2948616 5.386098 5.3589005 4.0996094 7.0742188 C 2.5695621 9.1142816 1 11.799685 1 14.5 C 1 17.150236 2.3087845 18.664286 4.0703125 19.341797 C 5.8318405 20.019308 8 20 10 20 C 12 20 14.168159 20.01931 15.929688 19.341797 C 17.691216 18.664286 19 17.150236 19 14.5 C 19 11.799685 17.430438 9.1142814 15.900391 7.0742188 C 14.613901 5.3589005 13.520096 4.2948616 13.142578 3.9355469 L 14.916016 1.2773438 C 15.088927 1.0174273 14.984039 0.66436816 14.697266 0.54101562 C 13.978672 0.23310127 13.441708 0.10236154 12.964844 0.095703125 z M 12.65625 1.1171875 C 12.922777 1.0761275 13.330981 1.236312 13.679688 1.3300781 L 12.232422 3.5 L 7.7675781 3.5 L 6.3046875 1.3046875 C 6.8796693 1.1670037 7.3639663 1.1812379 7.8886719 1.3144531 C 8.5922201 1.493074 9.4404152 1.7898596 10.583984 1.59375 C 11.647433 1.4113805 12.227503 1.1832377 12.65625 1.1171875 z M 7.7070312 4.5 L 12.292969 4.5 C 12.480348 4.6748327 13.734431 5.8555422 15.099609 7.6757812 C 16.569562 9.6357185 18 12.200315 18 14.5 C 18 16.849764 17.058785 17.835714 15.570312 18.408203 C 14.081843 18.980692 12 19 10 19 C 8 19 5.9181595 18.980692 4.4296875 18.408203 C 2.9412155 17.835714 2 16.849764 2 14.5 C 2 12.200315 3.4304379 9.6357186 4.9003906 7.6757812 C 6.2655702 5.855542 7.5196519 4.6748327 7.7070312 4.5 z M 7.7070312 9 L 7 9.7148438 L 8.7929688 11.527344 L 8 11.527344 L 8 12.539062 L 9.5 12.539062 L 9.5 13.044922 L 8 13.044922 L 8 14.056641 L 9.5 14.056641 L 9.5 16 L 10.5 16 L 10.5 14.056641 L 12 14.056641 L 12 13.044922 L 10.5 13.044922 L 10.5 12.539062 L 12 12.539062 L 12 11.527344 L 11.207031 11.527344 L 13 9.7148438 L 12.292969 9 L 10 11.318359 L 7.7070312 9 z " style="fill:#918f94; fill-opacity:1; stroke:none; stroke-width:0px;"/></g></svg>