<svg viewBox="0 0 64 64" xml:space="preserve" xmlns="http://www.w3.org/2000/svg" enable-background="new 0 0 64 64"><path d="m34.499 30.332 1.002 1.731A7.027 7.027 0 0 0 39 26c0-3.86-3.141-7-7-7s-7 3.14-7 7a6.99 6.99 0 0 0 3.129 5.833l1.107-1.665A4.996 4.996 0 0 1 27 26c0-2.757 2.243-5 5-5s5 2.243 5 5a5.021 5.021 0 0 1-2.501 4.332z" fill="#918f94" class="fill-000000"></path><path d="M19 26c0 4.364 2.172 8.414 5.811 10.833l1.107-1.665A10.99 10.99 0 0 1 21 26c0-6.065 4.935-11 11-11s11 4.935 11 11c0 3.693-1.839 7.12-4.918 9.167l1.107 1.666A12.982 12.982 0 0 0 45 26c0-7.168-5.832-13-13-13s-13 5.832-13 13zM56 27c0-.7-.031-1.403-.092-2.088l-1.992.177c.056.626.084 1.269.084 1.911 0 7.714-3.934 14.734-10.523 18.777l1.047 1.705C51.71 43.072 56 35.416 56 27zM32 5c4.446 0 8.729 1.323 12.385 3.825l1.129-1.65A23.816 23.816 0 0 0 32 3c-2.869 0-5.678.501-8.348 1.491l.695 1.875A21.946 21.946 0 0 1 32 5zM9.492 18.652A23.91 23.91 0 0 0 8 27c0 8.418 4.291 16.074 11.478 20.478l1.045-1.705C13.934 41.735 10 34.717 10 27c0-2.634.46-5.208 1.367-7.652l-1.875-.696z" fill="#918f94" class="fill-000000"></path><path d="M37 42a5 5 0 0 0-4-4.899V29a2.99 2.99 0 0 0 2-2.816 3 3 0 1 0-6 0A2.99 2.99 0 0 0 31 29v8.101A5 5 0 1 0 37 42z" fill="#918f94" class="fill-000000"></path><path d="M23 51v11h18V51c0-2.209-1.612-4-3.6-4H26.6c-1.988 0-3.6 1.791-3.6 4zM61 15a8 8 0 1 0-16 0 8 8 0 0 0 16 0zm-8 7a6.974 6.974 0 0 1-4.99-2.095A3.994 3.994 0 0 1 52 16h1a3 3 0 1 1 0-6 3 3 0 0 1 0 6h1a3.994 3.994 0 0 1 3.99 3.905A6.974 6.974 0 0 1 53 22zM15 18a8 8 0 1 0 0-16 8 8 0 0 0 0 16zm-1-7h1a3 3 0 1 1 0-6 3 3 0 0 1 0 6h1a3.994 3.994 0 0 1 3.99 3.905A6.974 6.974 0 0 1 15 17a6.974 6.974 0 0 1-4.99-2.095A3.994 3.994 0 0 1 14 11z" fill="#918f94" class="fill-000000"></path></svg>