<?xml version="1.0" ?><svg viewBox="0 0 64 64" xmlns="http://www.w3.org/2000/svg"><g id="a"/><g id="b"><path fill="#918f94" d="M52.9502,23.0068c-4.1963-4.5933-15.9404-15.8896-18.6855-16.0054l-.0459-.001c-3.4111,0-23.6768,14.7529-26.5684,18.7681-.4844,.6724-.6211,1.5142-.375,2.3101,.8389,2.7222,13.0352,28.3804,15.7285,28.8765,.1143,.021,.2881,.0312,.5146,.0312,3.4766,0,19.3379-2.3926,21.7305-4.2891,2.4131-1.9126,11.4688-21.3735,11.5928-23.96,.0234-.4883,.0674-1.397-3.8916-5.7305Zm1.5485,4.9421l-6.7602,1.4154c-.0867-.2285-.2007-.4481-.3732-.6383-3.1182-3.4399-8.7393-8.8057-12.5303-11.9619-.0428-.0358-.095-.0518-.14-.0834l.1814-7.3651c3.8586,2.2017,17.28,14.9877,19.6223,18.6333Zm-37.6078,2.4041c2.4946,5.333,6.435,12.9665,8.9051,17.2377v.0005c.0079,.0136,.02,.0232,.0281,.0366l-2.9464,6.5828c-2.814-3.9907-11.1364-19.9807-13.3268-25.6894l7.3399,1.8318Zm16.5301,5.1987l5.4763,8.93c-2.5568,.659-6.9257,1.4414-10.3462,1.9508l4.8699-10.8808Zm-1.1079-3.4113l-13.381-3.3394c3.7693-3.0609,9.5928-7.2674,13.7075-9.9174l-.3265,13.2567Zm-.4316,1.9537l-5.0473,11.277c-2.2045-3.9282-5.2159-9.7592-7.4419-14.3939l12.4892,3.1168Zm-4.291,14.4845c.0677-.0025,.1354-.0046,.2035-.0142,3.5771-.502,8.7119-1.4009,11.6045-2.1465,.1951-.0505,.3728-.1367,.5394-.2393l3.278,5.3454c-3.3041,1.2679-14.4212,3.1187-18.4821,3.4371l2.8567-6.3826Zm7.2869-14.4776l10.171-2.1295c-1.4549,3.2867-3.4471,7.4661-5.0433,10.4909l-5.1277-8.3614Zm-.5641-1.9256l.3192-12.9583c3.5263,3.0449,8.2465,7.5766,11.0138,10.5853l-11.3329,2.3729Zm-1.4423-22.6945l-.1735,7.0457c-.0613,.03-.1278,.0422-.1868,.0789-4.3369,2.7021-11.1836,7.6309-15.2627,10.9858-.2234,.1841-.3784,.4168-.5002,.6647l-7.1098-1.7743c3.4733-4.0452,18.42-14.6227,23.233-17.0008Zm11.8765,40.7144l-3.5358-5.7656c1.9111-3.4868,4.6055-9.1594,6.2382-12.9612l7.051-1.4763c-1.4752,4.4077-7.3631,16.6133-9.7534,20.203Z"/></g></svg>