
<svg viewBox="0 0 512 512" xmlns="http://www.w3.org/2000/svg"><path d="M391 233.948H121a45.132 45.132 0 0 0-45 45v162a45.132 45.132 0 0 0 45 45h270a45.132 45.132 0 0 0 45-45v-162a45.132 45.132 0 0 0-45-45ZM184.123 369.379a9.895 9.895 0 1 1-9.896 17.14l-16.33-9.43v18.86a9.896 9.896 0 0 1-19.793 0v-18.86l-16.33 9.43a9.895 9.895 0 0 1-9.897-17.14l16.335-9.43-16.335-9.43a9.895 9.895 0 0 1 9.897-17.14l16.33 9.429v-18.86a9.896 9.896 0 0 1 19.793 0v18.86l16.33-9.429a9.895 9.895 0 0 1 9.896 17.14l-16.334 9.43Zm108 0a9.895 9.895 0 1 1-9.896 17.14l-16.33-9.43v18.86a9.896 9.896 0 0 1-19.793 0v-18.86l-16.33 9.43a9.895 9.895 0 0 1-9.897-17.14l16.335-9.43-16.335-9.43a9.895 9.895 0 0 1 9.897-17.14l16.33 9.429v-18.86a9.896 9.896 0 0 1 19.793 0v18.86l16.33-9.429a9.895 9.895 0 0 1 9.896 17.14l-16.334 9.43Zm108 0a9.895 9.895 0 1 1-9.896 17.14l-16.33-9.43v18.86a9.896 9.896 0 0 1-19.793 0v-18.86l-16.33 9.43a9.895 9.895 0 0 1-9.897-17.14l16.335-9.43-16.335-9.43a9.895 9.895 0 0 1 9.897-17.14l16.33 9.429v-18.86a9.896 9.896 0 0 1 19.793 0v18.86l16.33-9.429a9.895 9.895 0 0 1 9.896 17.14l-16.334 9.43ZM157.897 143.949a98.103 98.103 0 1 1 196.207 0v70.198h19.793v-70.198a117.897 117.897 0 0 0-235.793 0v70.198h19.792Z" fill="#918f94" class="fill-000000"></path></svg>