<?xml version="1.0" ?><!DOCTYPE svg  PUBLIC '-//W3C//DTD SVG 1.1//EN'  'http://www.w3.org/Graphics/SVG/1.1/DTD/svg11.dtd'><svg enable-background="new 0 0 50 50" height="50px" id="Layer_1" version="1.1" viewBox="0 0 50 50" width="50px" xml:space="preserve" xmlns="http://www.w3.org/2000/svg" xmlns:xlink="http://www.w3.org/1999/xlink"><rect fill="none" height="50" width="50"/><path d="M14.748,30.217c0,0,2.318,4.049,2.875,5.109  c0.559,1.057,0.7,2.152,0.294,2.817c-0.616,1.007-6.241,9.463-6.739,10.175c-0.499,0.712-1.924,1.055-3.32,0.076  C6.461,47.42,0.941,42.922,1,41.016c0.062-1.909,0.236-9.846,15.207-24.813C31.174,1.238,39.113,1.061,41.021,1  s6.408,5.459,7.384,6.855c0.975,1.398,0.608,2.825-0.078,3.321c-0.781,0.564-9.21,6.124-10.177,6.736  c-0.659,0.419-1.76,0.265-2.818-0.294c-1.061-0.556-5.109-2.874-5.109-2.874s-2.787,1.634-8.312,7.16  C16.385,27.431,14.748,30.217,14.748,30.217z" fill="none" stroke="#000000" stroke-miterlimit="10" stroke-width="2"/></svg>