<svg fill="none" viewBox="0 0 24 24" xmlns="http://www.w3.org/2000/svg"><path d="M8 9a1 1 0 1 0 0-2 1 1 0 0 0 0 2ZM9 15a1 1 0 1 0 0 2h6a1 1 0 1 0 0-2H9ZM9 12a1 1 0 1 1-2 0 1 1 0 0 1 2 0ZM12 9a1 1 0 1 0 0-2 1 1 0 0 0 0 2ZM13 12a1 1 0 1 1-2 0 1 1 0 0 1 2 0ZM16 9a1 1 0 1 0 0-2 1 1 0 0 0 0 2ZM17 12a1 1 0 1 1-2 0 1 1 0 0 1 2 0Z" fill="#918f94" class="fill-000000"></path><path clip-rule="evenodd" d="M3 6a3 3 0 0 1 3-3h12a3 3 0 0 1 3 3v12a3 3 0 0 1-3 3H6a3 3 0 0 1-3-3V6Zm3-1h12a1 1 0 0 1 1 1v12a1 1 0 0 1-1 1H6a1 1 0 0 1-1-1V6a1 1 0 0 1 1-1Z" fill="#918f94" fill-rule="evenodd" class="fill-000000"></path></svg>