<svg data-name="Livello 1" viewBox="0 0 128 128" xmlns="http://www.w3.org/2000/svg"><path d="M116.73 31.83a3 3 0 0 0-4.2-.61L64.14 67.34a1 1 0 0 1-1.2 0L15.5 31.06a3 3 0 1 0-3.64 4.77l37.3 28.53-36.89 27.8A3 3 0 1 0 15.88 97l38.23-28.86 5.18 4a7 7 0 0 0 8.43.06l5.44-4.06L111.84 97a3 3 0 1 0 3.59-4.81L78.17 64.35 116.12 36a3 3 0 0 0 .61-4.17Z" fill="#918f94" class="fill-000000"></path><path d="M113 19H15A15 15 0 0 0 0 34v60a15 15 0 0 0 15 15h98a15 15 0 0 0 15-15V34a15 15 0 0 0-15-15Zm9 75a9 9 0 0 1-9 9H15a9 9 0 0 1-9-9V34a9 9 0 0 1 9-9h98a9 9 0 0 1 9 9Z" fill="#918f94" class="fill-000000"></path></svg>