<svg viewBox="0 0 64 64" xmlns="http://www.w3.org/2000/svg"><g data-name="Outline"><path d="m29.35 7.89-.35 2.9a9.07 9.07 0 0 0-1.44.59l-2.25-1.82a1 1 0 0 0-1.31.08L21.64 12a1 1 0 0 0-.08 1.33l1.82 2.27a10.74 10.74 0 0 0-.59 1.4l-2.9.32a1 1 0 0 0-.89 1v3.32a1 1 0 0 0 .89 1l2.9.32a10.74 10.74 0 0 0 .59 1.45l-1.82 2.27a1 1 0 0 0 .08 1.32L24 30.36a1 1 0 0 0 1.33.08l2.28-1.82a9.07 9.07 0 0 0 1.44.59l.32 2.9a1 1 0 0 0 1 .89h3.32a1 1 0 0 0 1-.89l.32-2.9a9.07 9.07 0 0 0 1.44-.59l2.28 1.82a1 1 0 0 0 1.27-.08L42.36 28a1 1 0 0 0 .08-1.33l-1.82-2.27a8.65 8.65 0 0 0 .59-1.4l2.9-.32a1 1 0 0 0 .89-1v-3.34a1 1 0 0 0-.89-1l-2.9-.34a8.65 8.65 0 0 0-.59-1.45l1.82-2.27a1 1 0 0 0-.08-1.28L40 9.64a1 1 0 0 0-1.33-.08l-2.28 1.82a9.07 9.07 0 0 0-1.39-.59l-.32-2.9a1 1 0 0 0-1-.89h-3.34a1 1 0 0 0-.99.89Zm1.59 3.78.3-2.67h1.52l.3 2.67a1 1 0 0 0 .76.87 7.5 7.5 0 0 1 2.17.9 1 1 0 0 0 1.15-.07l2.1-1.69 1.08 1.08-1.69 2.1a1 1 0 0 0-.07 1.14 7.5 7.5 0 0 1 .9 2.17 1 1 0 0 0 .87.76l2.67.3v1.52l-2.67.3a1 1 0 0 0-.87.76 7.5 7.5 0 0 1-.9 2.17 1 1 0 0 0 .07 1.15l1.69 2.1-1.08 1.08-2.1-1.69a1 1 0 0 0-1.14-.06 7.5 7.5 0 0 1-2.17.9 1 1 0 0 0-.76.87L32.76 31h-1.52l-.3-2.67a1 1 0 0 0-.76-.87 7.5 7.5 0 0 1-2.17-.9 1 1 0 0 0-1.15.07l-2.1 1.69-1.08-1.08 1.69-2.1a1 1 0 0 0 .07-1.14 7.63 7.63 0 0 1-.91-2.18 1 1 0 0 0-.86-.75L21 20.76v-1.52l2.67-.3a1 1 0 0 0 .86-.75 7.63 7.63 0 0 1 .91-2.19 1 1 0 0 0-.07-1.15l-1.69-2.1 1.08-1.08 2.1 1.69a1 1 0 0 0 1.15.07 7.5 7.5 0 0 1 2.17-.9 1 1 0 0 0 .76-.86Z" fill="#918f94" class="fill-000000"></path><path d="M26.64 20A5.36 5.36 0 1 0 32 14.64 5.36 5.36 0 0 0 26.64 20ZM32 16.64A3.36 3.36 0 1 1 28.64 20 3.37 3.37 0 0 1 32 16.64Z" fill="#918f94" class="fill-000000"></path><path d="M58.4 21.83 53 18.3V5a3 3 0 0 0-3-3H36a1 1 0 0 0 0 2h14a1 1 0 0 1 1 1v27.21l-10.27 9.15-2.95-2.52a8.72 8.72 0 0 0-11.56 0l-2.9 2.56L13 32.21V5a1 1 0 0 1 1-1h14a1 1 0 0 0 0-2H14a3 3 0 0 0-3 3v13.3l-5.46 3.58A9 9 0 0 0 2 29.05V53a9.06 9.06 0 0 0 9.05 9H53a9.06 9.06 0 0 0 9-9V29.05a9 9 0 0 0-3.6-7.22ZM53 20.69l4.24 2.77a7.07 7.07 0 0 1 1.62 1.75L53 30.43ZM6.7 23.51l4.3-2.82v9.74l-5.87-5.22a6.68 6.68 0 0 1 1.57-1.7ZM4 53V29.05a6.93 6.93 0 0 1 .28-1.93l7 6.25 10.52 9.36L5.44 57.2A7 7 0 0 1 4 53Zm7.05 7a7 7 0 0 1-4.18-1.39l20.67-18.27a6.74 6.74 0 0 1 8.93 0l21 18A7 7 0 0 1 53 60Zm49-7a7 7 0 0 1-1.17 3.88L42.26 42.67l10.45-9.3 7-6.25a6.93 6.93 0 0 1 .29 1.93Z" fill="#918f94" class="fill-000000"></path><circle cx="32" cy="3" r="1" fill="#918f94" class="fill-000000"></circle></g></svg>