<svg viewBox="0 0 32 32" xml:space="preserve" xmlns="http://www.w3.org/2000/svg" enable-background="new 0 0 32 32"><circle cx="24.2" cy="7.3" r="6.3" fill="none" stroke="#918f94" stroke-width="1.5" stroke-linecap="round" stroke-linejoin="round" stroke-miterlimit="10" class="stroke-000000"></circle><circle cx="24.2" cy="5" r="1.9" fill="none" stroke="#918f94" stroke-width="1.5" stroke-linecap="round" stroke-linejoin="round" stroke-miterlimit="10" class="stroke-000000"></circle><path d="M29 11.3c-1.1 1.3-2.8 2.2-4.8 2.2-1.9 0-3.6-.9-4.8-2.2 1.1-1.3 2.8-2.2 4.8-2.2s3.7.9 4.8 2.2z" fill="none" stroke="#918f94" stroke-width="1.5" stroke-linecap="round" stroke-linejoin="round" stroke-miterlimit="10" class="stroke-000000"></path><circle cx="7.8" cy="7.3" r="6.3" fill="none" stroke="#918f94" stroke-width="1.5" stroke-linecap="round" stroke-linejoin="round" stroke-miterlimit="10" class="stroke-000000"></circle><circle cx="7.8" cy="5" r="1.9" fill="none" stroke="#918f94" stroke-width="1.5" stroke-linecap="round" stroke-linejoin="round" stroke-miterlimit="10" class="stroke-000000"></circle><path d="M12.5 11.3c-1.1 1.3-2.8 2.2-4.8 2.2-1.9 0-3.6-.9-4.8-2.2C4.1 10 5.8 9.1 7.8 9.1c1.9 0 3.6.9 4.7 2.2zM21.2 31H10.5c-.7 0-1.2-.5-1.2-1.2v-.2c0-2.9 2.3-5.2 5.2-5.2h2.6c2.9 0 5.2 2.3 5.2 5.2v.2c.1.7-.5 1.2-1.1 1.2zM15.9 12.8c-2 0-3.6 1.6-3.6 3.6s1.6 5.1 3.6 5.1 3.6-3.1 3.6-5.1-1.6-3.6-3.6-3.6z" fill="none" stroke="#918f94" stroke-width="1.5" stroke-linecap="round" stroke-linejoin="round" stroke-miterlimit="10" class="stroke-000000"></path></svg>