<svg viewBox="0 0 64 64" xmlns="http://www.w3.org/2000/svg"><g data-name="Big ben"><path d="M32 24a4 4 0 1 0 4 4 4 4 0 0 0-4-4Zm0 6a2 2 0 1 1 2-2 2 2 0 0 1-2 2ZM28 40a1 1 0 0 0-1 1v3a1 1 0 0 0 2 0v-3a1 1 0 0 0-1-1ZM36 40a1 1 0 0 0-1 1v3a1 1 0 0 0 2 0v-3a1 1 0 0 0-1-1ZM28 49a1 1 0 0 0-1 1v3a1 1 0 0 0 2 0v-3a1 1 0 0 0-1-1ZM36 49a1 1 0 0 0-1 1v3a1 1 0 0 0 2 0v-3a1 1 0 0 0-1-1Z" fill="#918f94" class="fill-000000"></path><path d="M52 59h-9V22a1 1 0 0 0-.07-.35.3.3 0 0 0 0-.08v-.08L37 11.61l-1-3.85A1 1 0 0 0 35 7h-2V5a1 1 0 0 0-2 0v2h-2a1 1 0 0 0-1 .76l-1 3.85-5.93 9.88v.08a.3.3 0 0 0 0 .08A1 1 0 0 0 21 22v37h-7a1 1 0 0 0 0 2h38a1 1 0 0 0 0-2ZM23 23h18v10H23Zm6.78-14h4.44l.5 2h-5.44Zm-1.21 4h6.86l4.8 8H23.77ZM23 59V35h18v24Z" fill="#918f94" class="fill-000000"></path></g></svg>