<svg viewBox="0 0 48 48" xml:space="preserve" xmlns="http://www.w3.org/2000/svg"><path d="M22.007 35c-9.374 0-17-7.626-17-17s7.626-17 17-17 17 7.626 17 17-7.626 17-17 17zm0-32c-8.271 0-15 6.729-15 15s6.729 15 15 15 15-6.729 15-15-6.729-15-15-15z" fill="#918f94" class="fill-000000"></path><path d="M22.007 39.99c-5.634 0-11.268-2.145-15.557-6.433l1.414-1.414c7.799 7.797 20.487 7.798 28.284 0 7.798-7.798 7.798-20.487 0-28.285l1.414-1.414c8.578 8.578 8.578 22.535 0 31.113-4.288 4.288-9.921 6.433-15.555 6.433z" fill="#918f94" class="fill-000000"></path><path d="M20.007 38.976h2v4.05h-2zM22.007 38.976h2v4.05h-2z" fill="#918f94" class="fill-000000"></path><path d="M36.973 48H7.04l2.403-1.8c3.668-2.748 8.013-4.2 12.563-4.2s8.895 1.452 12.562 4.2l2.405 1.8zm-23.426-2h16.92c-2.617-1.315-5.49-2-8.46-2s-5.844.685-8.46 2zM5.743 35.264a.999.999 0 0 1-.707-1.707l2.828-2.828a.999.999 0 1 1 1.414 1.414L6.45 34.971a.997.997 0 0 1-.707.293zM35.441 5.565a.999.999 0 0 1-.707-1.707l2.828-2.828a.999.999 0 1 1 1.414 1.414l-2.828 2.828a.993.993 0 0 1-.707.293z" fill="#918f94" class="fill-000000"></path></svg>