<?xml version="1.0" ?><!DOCTYPE svg  PUBLIC '-//W3C//DTD SVG 1.1//EN'  'http://www.w3.org/Graphics/SVG/1.1/DTD/svg11.dtd'><svg enable-background="new 0 0 512 512" height="512px" id="meteorite" version="1.1" viewBox="0 0 512 512" width="512px" xml:space="preserve" xmlns="http://www.w3.org/2000/svg" xmlns:xlink="http://www.w3.org/1999/xlink"><circle cx="180.07" cy="157.446" fill="#F4F4F4" r="93.944"/><circle cx="342.624" cy="397.056" fill="#F4F4F4" r="93.944"/><circle cx="135.046" cy="196.349" fill="#66B2B2" r="9.622"/><circle cx="318.469" cy="405.592" fill="#66B2B2" r="18.878"/><circle cx="59.969" cy="244.403" fill="#5AA096" r="34.879"/><circle cx="417.121" cy="393.512" fill="#5AA096" r="34.879"/><circle cx="349.304" cy="269.117" fill="#66B2B2" r="8.729"/><circle cx="387.304" cy="174.117" fill="#66B2B2" r="8.729"/><circle cx="404.192" cy="109.729" fill="#66B2B2" r="8.729"/><circle cx="400.415" cy="29.729" fill="#66B2B2" r="8.729"/><path d="M119.326,317.389l12.881-12.881c9.12,5.076,20.908,3.773,28.631-3.949L384.401,76.995  c9.321-9.321,9.321-24.573,0-33.894c-9.32-9.321-24.572-9.321-33.894,0L247.65,145.959c-6.304-1.311-13.136,0.457-18.004,5.324  L91.433,289.496c-7.67,7.67-7.67,20.223,0,27.893S111.655,325.059,119.326,317.389z" fill="#5AA096"/><path d="M389.658,123.688c-7.671-7.67-20.223-7.67-27.894,0L109.958,375.494c-7.67,7.671-7.67,20.223,0,27.893  c0.886,0.887,1.842,1.658,2.843,2.34c-5.331,10.143-3.746,23.046,4.756,31.547c10.451,10.452,27.553,10.451,38.003,0l6.529-6.528  c-0.803,5.909,1.032,12.117,5.549,16.634c7.67,7.671,20.223,7.671,27.893,0l138.214-138.213c7.67-7.67,7.67-20.223,0-27.893  c-4.518-4.518-10.726-6.352-16.635-5.549l55.461-55.461c10.451-10.451,10.451-27.552,0-38.003c-2.393-2.392-5.136-4.23-8.065-5.527  l25.152-25.152C397.328,143.91,397.328,131.358,389.658,123.688z" fill="#5AA096"/><path d="M167.639,447.379L167.639,447.379c-7.67-7.67-7.67-20.222,0-27.893l138.213-138.213  c7.671-7.67,20.223-7.67,27.894,0l0,0c7.67,7.67,7.67,20.223,0,27.893L195.531,447.379  C187.861,455.05,175.309,455.05,167.639,447.379z" fill="#466C6F"/><path d="M91.433,317.389L91.433,317.389c-7.67-7.67-7.67-20.223,0-27.893l138.213-138.213  c7.67-7.67,20.223-7.67,27.893,0l0,0c7.67,7.67,7.67,20.223,0,27.893L119.326,317.389  C111.655,325.059,99.104,325.059,91.433,317.389z" fill="#466C6F"/><path d="M109.958,403.387L109.958,403.387c-7.67-7.67-7.67-20.222,0-27.893l251.806-251.806  c7.671-7.67,20.223-7.67,27.894,0l0,0c7.67,7.67,7.67,20.222,0,27.893L137.851,403.388  C130.181,411.058,117.629,411.058,109.958,403.387z" fill="#466C6F"/><circle cx="122.74" cy="383.385" fill="#FFD800" r="99.222"/><circle cx="122.74" cy="383.385" fill="#FF7143" r="85.104"/><path d="M62.357,323.414c-0.273,0.275-0.525,0.563-0.794,0.842l120.725,119.9c0.276-0.271,0.563-0.524,0.836-0.801  c33.121-33.348,32.936-87.232-0.413-120.354C149.362,289.881,95.478,290.065,62.357,323.414z" fill="#E5603C"/><ellipse cx="125.709" cy="326.334" fill="#FF7143" rx="23.75" ry="13.723"/><ellipse cx="168.458" cy="345.334" fill="#FF7143" rx="13.722" ry="7.929"/><ellipse cx="87.181" cy="431.361" fill="#E5603C" rx="15.833" ry="10.027"/><circle cx="134.681" cy="436.111" fill="#E5603C" r="16.889"/><path d="M142.761,145.016L142.761,145.016c-5.19-5.19-5.189-13.683,0-18.873l51.679-51.679  c5.19-5.19,13.682-5.19,18.872,0l0,0c5.19,5.19,5.19,13.682,0,18.872l-51.679,51.679  C156.444,150.206,147.951,150.206,142.761,145.016z" fill="#5AA096"/><circle cx="146.292" cy="141.613" fill="#FF7143" r="17.944"/><circle cx="146.292" cy="141.613" fill="#E5603C" r="12.667"/><path d="M414.038,226.293L414.038,226.293c-5.19-5.19-5.189-13.683,0-18.873l51.679-51.679  c5.19-5.19,13.683-5.19,18.872,0l0,0c5.19,5.19,5.19,13.682,0,18.872l-51.679,51.679  C427.721,231.483,419.228,231.483,414.038,226.293z" fill="#5AA096"/><circle cx="417.568" cy="222.89" fill="#FF7143" r="17.944"/><circle cx="417.568" cy="222.89" fill="#E5603C" r="12.667"/><polygon fill="#FFD326" points="456.497,258.643 461.69,269.163 473.3,270.85 464.899,279.039 466.882,290.604 456.497,285.144   446.112,290.604 448.096,279.039 439.694,270.85 451.306,269.163 "/><polygon fill="#FFD326" points="417.121,377.531 422.313,388.053 433.925,389.74 425.522,397.93 427.506,409.493 417.121,404.033   406.736,409.493 408.72,397.93 400.318,389.74 411.929,388.053 "/><polygon fill="#FFD326" points="58.498,93.642 63.69,104.163 75.3,105.85 66.899,114.04 68.882,125.604 58.498,120.144   48.112,125.604 50.096,114.04 41.694,105.85 53.305,104.163 "/></svg>