<?xml version="1.0" ?><svg id="OBJECT" viewBox="0 0 512 512" xmlns="http://www.w3.org/2000/svg"><defs><style>.cls-1{fill:#bddbff;}.cls-2{fill:#3d9ae2;}.cls-3{fill:#fff;}</style></defs><title/><circle class="cls-1" cx="256" cy="256" r="248.5"/><path class="cls-2" d="M256,512A256,256,0,0,1,75,75,256,256,0,0,1,437,437,254.33,254.33,0,0,1,256,512Zm0-497C123.11,15,15,123.11,15,256S123.11,497,256,497,497,388.89,497,256,388.89,15,256,15Z"/><circle class="cls-3" cx="256" cy="256" r="200"/><path class="cls-2" d="M256,463.5C141.58,463.5,48.5,370.42,48.5,256S141.58,48.5,256,48.5,463.5,141.58,463.5,256,370.42,463.5,256,463.5Zm0-400C149.86,63.5,63.5,149.86,63.5,256S149.86,448.5,256,448.5,448.5,362.14,448.5,256,362.14,63.5,256,63.5Z"/><path class="cls-2" d="M296,303.5a7.5,7.5,0,0,1-5.32-2.21l-40-40.23a7.49,7.49,0,0,1-2.18-5.29V176a7.5,7.5,0,0,1,15,0v76.68l37.82,38A7.5,7.5,0,0,1,296,303.5Z"/><path class="cls-2" d="M126,263.5H96a7.5,7.5,0,0,1,0-15h30a7.5,7.5,0,0,1,0,15Z"/><path class="cls-2" d="M416,263.5H386a7.5,7.5,0,0,1,0-15h30a7.5,7.5,0,0,1,0,15Z"/><path class="cls-2" d="M171.15,178.65a7.48,7.48,0,0,1-5.31-2.2L151.7,162.31a7.5,7.5,0,0,1,10.61-10.61l14.14,14.14a7.51,7.51,0,0,1-5.3,12.81Z"/><path class="cls-2" d="M355,362.5a7.52,7.52,0,0,1-5.31-2.2l-14.14-14.14a7.5,7.5,0,0,1,10.61-10.61l14.14,14.14A7.51,7.51,0,0,1,355,362.5Z"/><path class="cls-2" d="M340.85,178.65a7.51,7.51,0,0,1-5.3-12.81l14.14-14.14a7.5,7.5,0,0,1,10.61,10.61l-14.14,14.14A7.48,7.48,0,0,1,340.85,178.65Z"/><path class="cls-2" d="M157,362.5a7.51,7.51,0,0,1-5.3-12.81l14.14-14.14a7.5,7.5,0,0,1,10.61,10.61L162.31,360.3A7.52,7.52,0,0,1,157,362.5Z"/><path class="cls-2" d="M256,133.5a7.5,7.5,0,0,1-7.5-7.5V96a7.5,7.5,0,0,1,15,0v30A7.5,7.5,0,0,1,256,133.5Z"/><path class="cls-2" d="M256,423.5a7.5,7.5,0,0,1-7.5-7.5V386a7.5,7.5,0,0,1,15,0v30A7.5,7.5,0,0,1,256,423.5Z"/></svg>